<?xml version="1.0" encoding="utf-8"?>
<!-- Generator: Adobe Illustrator 22.0.1, SVG Export Plug-In . SVG Version: 6.00 Build 0)  -->
<svg version="1.1" xmlns="http://www.w3.org/2000/svg" xmlns:xlink="http://www.w3.org/1999/xlink" x="0px" y="0px"
	 viewBox="0 0 640 360" enable-background="new 0 0 640 360" xml:space="preserve">
<g id="Ebene_1">
	<g opacity="0.54">
		<g>
			<circle fill="#616568" cx="440" cy="90" r="5"/>
		</g>
	</g>
	<g>
		<circle fill="#616568" cx="183" cy="120" r="4"/>
	</g>
	<g opacity="0.73">
		<g>
			<circle fill="#616568" cx="33" cy="150" r="4"/>
		</g>
	</g>
	<g>
		<circle fill="#616568" cx="352" cy="285" r="3"/>
	</g>
	<g>
		<circle fill="#616568" cx="616" cy="339" r="3"/>
	</g>
	<g opacity="0.87">
		<g>
			<circle fill="#616568" cx="218" cy="286" r="6"/>
		</g>
	</g>
	<g opacity="0.72">
		<path fill="#616568" d="M133.6,36.1l1.6-1.6c0.5-0.5,1.5-0.3,1.7,0.4l0.6,2.2l0.6,2.2c0.2,0.7-0.5,1.4-1.2,1.2l-2.2-0.6l-2.2-0.6
			c-0.7-0.2-1-1.1-0.4-1.7L133.6,36.1z"/>
	</g>
	<g opacity="0.67">
		<path fill="#616568" d="M133.7,201.3l-2.3-2.3c-0.5-0.5-0.3-1.5,0.4-1.7l3.2-0.8l3.2-0.8c0.7-0.2,1.4,0.5,1.2,1.2l-0.8,3.2
			l-0.8,3.2c-0.2,0.7-1.1,1-1.7,0.4L133.7,201.3z"/>
	</g>
	<g opacity="0.54">
		<path fill="#616568" d="M499.6,259.4l1.7,1.7c0.5,0.5,0.3,1.5-0.4,1.7l-2.3,0.6l-2.3,0.6c-0.7,0.2-1.4-0.5-1.2-1.2l0.6-2.3
			l0.6-2.3c0.2-0.7,1.1-1,1.7-0.4L499.6,259.4z"/>
	</g>
	<g>
		<path fill="#616568" d="M609.6,114.5l-1.7,1.7c-0.5,0.5-1.5,0.3-1.7-0.4l-0.6-2.3l-0.6-2.3c-0.2-0.7,0.5-1.4,1.2-1.2l2.3,0.6
			l2.3,0.6c0.7,0.2,1,1.1,0.4,1.7L609.6,114.5z"/>
	</g>
	<g opacity="0.54">
		<path fill="#616568" d="M601,28h-4c-0.6,0-1-0.4-1-1v-4c0-0.6,0.4-1,1-1h4c0.6,0,1,0.4,1,1v4C602,27.6,601.6,28,601,28z"/>
	</g>
	<g opacity="0.87">
		<path fill="#616568" d="M331,71h-4c-0.6,0-1-0.4-1-1v-4c0-0.6,0.4-1,1-1h4c0.6,0,1,0.4,1,1v4C332,70.6,331.6,71,331,71z"/>
	</g>
	<g opacity="0.54">
		<path fill="#616568" d="M55.5,284.3l2.8-2.8c0.4-0.4,1-0.4,1.4,0l2.8,2.8c0.4,0.4,0.4,1,0,1.4l-2.8,2.8c-0.4,0.4-1,0.4-1.4,0
			l-2.8-2.8C55.1,285.3,55.1,284.7,55.5,284.3z"/>
	</g>
	<g opacity="0.72">
		<path fill="#616568" d="M563,304h-4c-0.6,0-1-0.4-1-1v-4c0-0.6,0.4-1,1-1h4c0.6,0,1,0.4,1,1v4C564,303.6,563.6,304,563,304z"/>
	</g>
	<g opacity="0.54">
		<path fill="#616568" d="M362.9,186.6l5.7-5.7c0.8-0.8,2-0.8,2.8,0l5.7,5.7c0.8,0.8,0.8,2,0,2.8l-5.7,5.7c-0.8,0.8-2,0.8-2.8,0
			l-5.7-5.7C362.1,188.6,362.1,187.4,362.9,186.6z"/>
	</g>
	<g opacity="0.54">
		<path fill="#616568" d="M59.9,30.6l5.7-5.7c0.8-0.8,2-0.8,2.8,0l5.7,5.7c0.8,0.8,0.8,2,0,2.8l-5.7,5.7c-0.8,0.8-2,0.8-2.8,0
			l-5.7-5.7C59.1,32.6,59.1,31.4,59.9,30.6z"/>
	</g>
	<path opacity="0.87" fill="#616568" d="M583.6,77.6l-5.4-5.4c-0.8-0.8-1.2-1.8-1.2-2.8V63c0-2.2-1.8-4-4-4h-78c-2.2,0-4,1.8-4,4
		v6.3c0,1.1-0.4,2.1-1.2,2.8l-5.4,5.4c-0.8,0.8-0.8,2,0,2.8l5.4,5.4c0.8,0.8,1.2,1.8,1.2,2.8V95c0,2.2,1.8,4,4,4h78c2.2,0,4-1.8,4-4
		v-6.3c0-1.1,0.4-2.1,1.2-2.8l5.4-5.4C584.4,79.6,584.4,78.4,583.6,77.6z M515,83.9c-0.3,0.4-0.7,0.8-1.1,1.2s-1.1,0.6-1.7,0.8
		c-0.7,0.2-1.4,0.3-2.2,0.3c-0.7,0-1.4-0.1-2.1-0.2c-0.6-0.2-1.2-0.4-1.7-0.7c-0.5-0.3-0.9-0.7-1.2-1.1c-0.3-0.5-0.5-1-0.5-1.6h3.5
		c0.1,0.3,0.2,0.6,0.5,0.9c0.3,0.3,0.8,0.4,1.5,0.4c0.5,0,1-0.1,1.4-0.3s0.6-0.6,0.6-1c0-0.3-0.1-0.6-0.4-0.9
		c-0.3-0.2-0.7-0.4-1.4-0.6l-1.8-0.4c-1.2-0.3-2.1-0.7-2.7-1.3c-0.7-0.6-1-1.3-1-2.1c0-0.5,0.1-1,0.4-1.4c0.3-0.4,0.7-0.8,1.2-1.1
		c0.5-0.3,1.1-0.6,1.7-0.7c0.6-0.2,1.3-0.3,2.1-0.3c0.7,0,1.4,0.1,2.1,0.3c0.6,0.2,1.2,0.4,1.6,0.7c0.5,0.3,0.8,0.7,1.1,1.1
		c0.3,0.4,0.4,0.9,0.4,1.4h-3.5c0-0.4-0.2-0.7-0.6-0.9c-0.4-0.2-0.8-0.3-1.3-0.3c-0.6,0-1,0.1-1.3,0.4c-0.3,0.2-0.5,0.5-0.5,0.9
		c0,0.2,0.1,0.4,0.3,0.7s0.6,0.4,1.3,0.6l2.2,0.6c1.4,0.4,2.3,0.8,2.8,1.4c0.5,0.6,0.8,1.3,0.8,2C515.4,83,515.2,83.5,515,83.9z
		 M528.5,86h-3.7v-8.4c0-0.4-0.2-0.8-0.5-1.1c-0.3-0.3-0.8-0.4-1.3-0.4c-0.7,0-1.2,0.1-1.4,0.4c-0.3,0.3-0.4,0.7-0.4,1.2V86h-3.7
		V68.9h3.7V75h0.1c0.4-0.4,0.8-0.7,1.4-0.9s1.2-0.4,2.1-0.4c0.5,0,0.9,0.1,1.4,0.2c0.5,0.1,0.9,0.3,1.2,0.5c0.4,0.2,0.6,0.5,0.9,0.9
		s0.3,0.8,0.3,1.4V86z M541.8,86h-3.7v-1.2h-0.1c-0.5,0.4-1,0.8-1.5,1c-0.5,0.2-1.2,0.4-2.1,0.4c-0.4,0-0.9,0-1.3-0.1
		c-0.5-0.1-0.9-0.2-1.3-0.5s-0.7-0.6-1-1c-0.3-0.4-0.4-1-0.4-1.6c0-0.7,0.1-1.3,0.3-1.8c0.2-0.5,0.5-1,0.9-1.3
		c0.4-0.3,1-0.6,1.8-0.8s1.7-0.3,2.8-0.3c0.3,0,0.5,0,0.8,0c0.3,0,0.6,0,1,0v-1.3c0-0.4-0.1-0.8-0.4-1c-0.3-0.3-0.7-0.4-1.4-0.4
		c-0.5,0-0.9,0.1-1.3,0.3c-0.4,0.2-0.7,0.5-0.8,0.9h-3.6c0.1-1.1,0.7-2,1.7-2.6c0.5-0.3,1.1-0.6,1.7-0.8c0.7-0.2,1.4-0.3,2.3-0.3
		c0.8,0,1.5,0.1,2.2,0.2c0.7,0.2,1.3,0.4,1.7,0.7c0.5,0.3,0.9,0.7,1.2,1.2c0.3,0.5,0.4,1,0.4,1.7V86z M552.8,76.3
		c-0.4-0.1-0.7-0.1-1.1-0.1s-0.8,0-1.2,0.1s-0.9,0.2-1.2,0.4s-0.7,0.5-0.9,0.8c-0.2,0.3-0.4,0.8-0.4,1.2V86h-3.7V73.8h3.7v1.3
		c0.7-0.4,1.5-0.8,2.2-1.1s1.6-0.4,2.7-0.4V76.3z M565.2,80.8H558v1.7c0,0.4,0.2,0.7,0.5,0.9c0.3,0.2,0.8,0.3,1.3,0.3
		c0.7,0,1.2-0.1,1.4-0.4c0.2-0.3,0.4-0.5,0.4-0.8h3.7c0,0.5-0.1,1-0.4,1.4c-0.3,0.4-0.6,0.8-1.1,1.2c-0.5,0.3-1.1,0.6-1.7,0.8
		c-0.7,0.2-1.4,0.3-2.3,0.3c-1.1,0-2.1-0.2-2.9-0.5c-0.8-0.3-1.4-0.7-1.9-1.3c-0.3-0.3-0.4-0.7-0.5-1.1c-0.1-0.4-0.1-0.9-0.1-1.4v-4
		c0-0.5,0-1,0.1-1.4c0.1-0.4,0.3-0.8,0.5-1.1c0.4-0.5,1.1-1,1.9-1.3c0.8-0.3,1.8-0.5,2.9-0.5c0.8,0,1.6,0.1,2.3,0.3
		c0.7,0.2,1.3,0.5,1.7,0.8c0.5,0.3,0.8,0.7,1.1,1.2s0.4,1,0.4,1.5V80.8z"/>
	<path opacity="0.87" fill="#616568" d="M561.1,76.5c-0.3-0.2-0.8-0.3-1.3-0.3c-0.6,0-1,0.1-1.3,0.3c-0.3,0.2-0.5,0.6-0.5,1v1.4h3.6
		v-1.4C561.6,77.1,561.4,76.7,561.1,76.5z"/>
	<path opacity="0.87" fill="#616568" d="M535.1,81.1c-0.6,0.2-0.8,0.7-0.8,1.4c0,0.5,0.2,0.8,0.5,1.1c0.3,0.3,0.8,0.4,1.4,0.4
		c0.6,0,1.1-0.1,1.5-0.4c0.3-0.3,0.5-0.7,0.5-1.2v-1.7c-0.4,0-0.7-0.1-1-0.1C536.4,80.7,535.7,80.8,535.1,81.1z"/>
	<g opacity="0.72">
		<path fill="#616568" d="M379.8,241.2c-0.5,0.3-0.8,0.7-1,1c-0.3,0.9-0.4,1.3-0.4,1.4c0,0.5,0.5,0.8,1.6,0.8c0.5,0,1.3-0.3,2.5-0.9
			c-0.2-0.4-0.3-0.7-0.3-1.1c0-0.5,0.2-1,0.5-1.5s0.8-1.1,1.4-1.8c-1,0.4-1.8,0.7-2.5,1.1S380.3,240.9,379.8,241.2z"/>
		<path fill="#616568" d="M435.1,239.8c0.4-0.4,0.5-0.6,0.5-0.8c0-0.2-0.1-0.3-0.4-0.3c-0.2,0-0.6,0.1-1,0.3s-1,0.4-1.4,0.7
			s-0.9,0.6-1.3,1s-0.6,0.8-0.8,1.3c1.1-0.3,2-0.6,2.7-1S434.7,240.2,435.1,239.8z"/>
		<path fill="#616568" d="M468,224h-41.4c-2.9,0-5.8-1.1-8-3l-4.2-3.7c-0.8-0.7-2-0.7-2.7,0.1l-3.2,3.2c-2.3,2.3-5.3,3.5-8.5,3.5
			h-40c-4.4,0-8,3.6-8,8v18c0,4.4,3.6,8,8,8h108c4.4,0,8-3.6,8-8v-18C476,227.6,472.4,224,468,224z M462.1,236.4
			c0.3,0,0.6,0,0.7,0.1c-0.7,0.8-1.5,1.7-2.5,2.5c-0.3,0-0.6,0-0.8,0s-0.4,0-0.7,0s-0.5,0-0.8,0c-0.6,0.7-1.2,1.3-1.6,1.8
			s-0.8,1-1,1.5s-0.3,0.9-0.3,1.3c0,0.5,0.3,0.8,1,0.8c0.4,0,1-0.2,1.7-0.5s1.7-0.8,2.9-1.5v0.8c-3.2,2.3-5.5,3.4-7,3.4
			c-0.5,0-1-0.1-1.3-0.4s-0.5-0.6-0.5-1.1c0-0.3,0.1-0.6,0.3-1s0.5-1,1-1.8c-0.2,0.1-0.3,0.2-0.5,0.3s-0.3,0.2-0.4,0.2
			s-0.3,0.2-0.4,0.2s-0.3,0.2-0.4,0.3v-0.1c-1.6,1.1-2.9,1.8-3.7,2.3c-0.9,0.5-1.6,0.7-2.2,0.7c-1,0-1.4-0.4-1.4-1.3
			c0-0.2,0.1-0.5,0.2-0.7s0.3-0.5,0.5-0.8s0.5-0.6,0.9-1.1s0.9-1,1.5-1.7c-0.7,0.2-1.5,0.7-2.5,1.3c-0.7,0.4-1.2,0.8-1.7,1.2
			s-0.9,0.8-1.5,1.3s-0.9,0.8-1.1,0.9s-0.5,0.2-0.7,0.2c-0.4,0-0.7-0.3-1-0.8c-0.3-0.5-0.5-1.1-0.5-1.8c-1.3,1-2.5,1.8-3.7,2.4
			c-1.2,0.6-2.3,0.8-3.5,0.8c-1,0-1.9-0.3-2.5-0.8s-0.9-1.3-0.9-2.2c0,0,0-0.1,0-0.1c-0.9,0.6-1.8,1.1-2.6,1.5
			c-0.8,0.5-1.6,0.8-2.2,1s-1.1,0.3-1.5,0.3c-0.4,0-0.7-0.1-0.9-0.3s-0.4-0.4-0.4-0.7c0-0.3,0.1-0.5,0.2-0.8s0.4-0.6,0.7-1
			s0.7-0.8,1.2-1.4s0.9-1,1.3-1.4c-1.2,0.6-2.3,1.3-3.2,1.9s-1.7,1.1-2.3,1.6s-1,0.8-1.4,1.1c-0.7,0.5-1.3,0.7-1.8,0.7
			c-0.6,0-0.9-0.3-0.9-0.9c0-0.2,0.2-0.7,0.7-1.3s1.1-1.4,2-2.3c0.1-0.1,0.1-0.2,0.1-0.3c0-0.2-0.1-0.2-0.4-0.2
			c-0.3,0-0.6,0.2-1.1,0.5s-1.4,1-2.8,2c-0.4,0.3-0.8,0.7-1.3,1.1s-0.8,0.8-1,0.9s-0.4,0.2-0.6,0.2c-0.4,0-0.8-0.2-1.2-0.8
			c-0.4-0.5-0.5-1-0.5-1.7c-0.9,0.6-1.8,1.1-2.5,1.5c-0.8,0.5-1.6,0.8-2.2,1s-1.1,0.3-1.5,0.3c-0.4,0-0.7-0.1-0.9-0.3
			s-0.4-0.4-0.4-0.7c0-0.3,0.1-0.5,0.2-0.8s0.4-0.6,0.7-1s0.7-0.8,1.2-1.4s0.9-1,1.3-1.4c-1.2,0.6-2.3,1.3-3.2,1.9s-1.7,1.1-2.3,1.6
			s-1,0.8-1.4,1.1c-0.7,0.5-1.3,0.7-1.8,0.7c-0.6,0-0.9-0.3-0.9-0.9c0-0.2,0.2-0.7,0.7-1.3s1.1-1.4,2-2.3c0.1-0.1,0.1-0.2,0.1-0.3
			c0-0.2-0.1-0.2-0.4-0.2c-0.3,0-0.6,0.2-1.1,0.5s-1.4,1-2.8,2c-0.4,0.3-0.8,0.7-1.3,1.1s-0.8,0.8-1,0.9s-0.4,0.2-0.6,0.2
			c-0.4,0-0.8-0.2-1.2-0.8c-0.4-0.5-0.5-1.1-0.5-1.7c-0.7,0.4-1.2,0.7-1.6,0.8c-0.5,0.2-1.1,0.2-2,0.2c-1.5,1.2-2.9,1.8-4,1.8
			c-0.7,0-1.3-0.1-1.8-0.4s-1-0.7-1.3-1.2c-0.2-0.3-0.4-0.7-0.4-1.1c-1.2,0.8-2.1,1.3-2.9,1.8c-0.8,0.5-1.5,0.8-2.2,1.1
			s-1.4,0.4-2,0.4c-0.6,0-1.2-0.2-1.8-0.5s-1-0.8-1.3-1.3s-0.5-1.1-0.5-1.8c0-0.5,0.2-1,0.5-1.4s1-0.9,2-1.6
			c1.2-0.8,2.3-1.4,3.3-1.8s1.8-0.6,2.4-0.6c0.4,0,0.8,0.1,1.1,0.3s0.4,0.4,0.4,0.7c0,0.2-0.2,0.6-0.6,1.1s-0.8,0.9-1.3,1.2
			s-0.9,0.5-1.1,0.5c-0.3,0-0.5-0.1-0.5-0.3c0-0.1,0-0.1,0-0.2s0-0.1,0-0.2c0-0.1,0-0.1-0.1-0.2s-0.2,0-0.4,0.1
			c-1.2,0.5-2,0.9-2.4,1.2s-0.8,0.4-1,0.7s-0.4,0.5-0.4,0.7c0,0.5,0.2,0.8,0.7,1.1s1,0.4,1.7,0.4c0.7,0,1.6-0.2,2.7-0.6
			c1-0.4,2.1-0.9,3.4-1.5c0.1-0.4,0.3-0.9,0.7-1.4c0.5-0.6,1.1-1.2,1.9-1.7s1.6-1,2.5-1.3s1.7-0.5,2.5-0.5c0.6,0,1,0.1,1.3,0.2
			s0.5,0.3,0.5,0.5c0,0.2-0.1,0.3-0.4,0.5c0.4,0.1,0.8,0.2,0.9,0.3s0.2,0.4,0.2,0.8c0,0.4-0.1,0.8-0.4,1.4s-0.6,1.1-1.1,1.6l0.3,0.2
			h0.3c0.2,0,0.4,0,0.6-0.1s0.4-0.1,0.5-0.2c0.1-0.1,0.5-0.2,1-0.5c0.1-0.1,0.1-0.3,0.2-0.4c0.2-0.4,0.6-0.8,1.1-1.3
			c0.8-0.8,1.4-1.3,1.9-1.6s1-0.5,1.6-0.5c0.3,0,0.6,0,0.9,0.1s0.4,0.2,0.4,0.4c0,0.2-0.2,0.4-0.6,0.8s-1,0.8-1.6,1.2
			c-0.4,0.2-0.7,0.5-1,0.8s-0.5,0.6-0.5,0.7c0,0.2,0.1,0.3,0.4,0.3c0.2,0,0.7-0.3,1.5-0.8s1.7-1.1,2.7-1.8s1.9-1.2,2.7-1.6
			s1.5-0.6,2.1-0.6c0.4,0,0.6,0.1,0.9,0.3s0.3,0.4,0.3,0.7c0,0.2-0.2,0.5-0.5,0.9s-0.9,1-1.5,1.7s-1.5,1.5-2.6,2.4
			c1.6-1,3-1.8,4.2-2.5s2.1-1.3,2.7-1.7s1.2-0.8,1.7-1s0.8-0.4,1-0.4c0.3,0,0.5,0.2,0.8,0.6s0.4,0.7,0.4,0.9c0,0.1-0.4,0.5-1.1,1
			s-1.3,1-1.7,1.3s-0.6,0.7-0.6,1c0,0.2,0.1,0.4,0.3,0.5s0.5,0.2,0.8,0.2c0.3,0,0.7-0.1,1.2-0.4c0.5-0.2,1.2-0.6,2.2-1.2
			c0.1-0.1,0.1-0.3,0.2-0.4c0.2-0.4,0.6-0.8,1.1-1.3c0.8-0.8,1.4-1.3,1.9-1.6s1-0.5,1.6-0.5c0.3,0,0.6,0,0.9,0.1s0.4,0.2,0.4,0.4
			c0,0.2-0.2,0.4-0.6,0.8s-1,0.8-1.6,1.2c-0.4,0.2-0.7,0.5-1,0.8s-0.5,0.6-0.5,0.7c0,0.2,0.1,0.3,0.4,0.3c0.2,0,0.7-0.3,1.5-0.8
			s1.7-1.1,2.7-1.8s1.9-1.2,2.7-1.6s1.5-0.6,2.1-0.6c0.4,0,0.6,0.1,0.9,0.3s0.3,0.4,0.3,0.7c0,0.2-0.2,0.5-0.5,0.9s-0.9,1-1.5,1.7
			s-1.5,1.5-2.6,2.4c1.6-1,3-1.8,4.2-2.5s2.1-1.3,2.7-1.7s1.2-0.8,1.7-1s0.8-0.4,1-0.4c0.3,0,0.5,0.2,0.8,0.6s0.4,0.7,0.4,0.9
			c0,0.1-0.4,0.5-1.1,1s-1.3,1-1.7,1.3s-0.6,0.7-0.6,1c0,0.2,0.1,0.4,0.3,0.5s0.5,0.2,0.8,0.2c0.3,0,0.7-0.1,1.2-0.4
			c0.5-0.2,1.2-0.6,2.2-1.2c0.1-0.4,0.4-0.8,0.7-1.2c0.6-0.7,1.5-1.4,2.8-2.1c0.9-0.5,1.8-0.9,2.7-1.1s1.7-0.4,2.4-0.4
			c0.6,0,1,0.1,1.3,0.3s0.5,0.4,0.5,0.8c0,0.5-0.3,1-0.8,1.5s-1.4,1-2.5,1.5s-2.5,0.9-4.2,1.4v0.3c0,0.5,0.2,0.8,0.5,1.1
			s0.8,0.4,1.3,0.4c0.6,0,1.2-0.1,1.8-0.3s1.2-0.4,1.8-0.7s1.4-0.7,2.2-1.2v0.2c0-0.2,0.1-0.4,0.2-0.5c0.1-0.2,0.4-0.6,0.9-1
			c0.8-0.8,1.5-1.4,2.1-1.8s1.1-0.6,1.7-0.6c0.4,0,0.7,0,0.9,0.1s0.3,0.2,0.3,0.4c0,0.1,0,0.2-0.1,0.2s-0.1,0.2-0.2,0.2
			s-0.3,0.2-0.6,0.4c-1.9,1.4-2.8,2.3-2.8,2.7c0,0.2,0.1,0.3,0.3,0.3c0.1,0,0.4-0.2,0.8-0.5s0.9-0.7,1.6-1.2s1.4-1,2.3-1.5
			s1.9-1,3-1.5c0.6-0.3,1.1-0.4,1.5-0.4c0.2,0,0.4,0.2,0.6,0.5s0.3,0.7,0.3,1c0,0.2-0.3,0.4-0.8,0.8c-2.1,1.5-3.1,2.6-3.1,3.2
			c0,0.3,0.2,0.5,0.6,0.5c0.3,0,0.8-0.1,1.3-0.4s1.4-0.7,2.6-1.3v0.1c1.2-0.7,2.7-1.9,4.4-3.6c-0.2,0-0.3,0-0.5,0s-0.3,0-0.5,0
			c-0.7,0-1.2,0-1.5,0.1c-0.1,0-0.3,0-0.4,0.1s-0.2,0-0.3,0s-0.1,0-0.1-0.1c0-0.3,0.2-0.6,0.7-1.2c0.4-0.4,0.8-0.8,1.1-1
			s0.8-0.4,1.3-0.4s1.2-0.1,2.1-0.1h0.8c0.6-0.7,1.2-1.3,1.7-1.6s1.1-0.5,1.7-0.5s1,0.1,1,0.3c0,0.1-0.3,0.3-0.8,0.8s-0.9,0.8-1.1,1
			C461.5,236.3,461.8,236.3,462.1,236.4z"/>
	</g>
	<g opacity="0.72">
		<path fill="#616568" d="M299.7,109.5c-0.2,0-0.5,0.1-0.7,0.3c-0.5,0.4-1,1.3-1.6,2.5c-0.6,1.3-0.8,2.3-0.8,3.2
			c0,0.3,0.1,0.5,0.2,0.7s0.3,0.2,0.4,0.2c0.3,0,0.5-0.1,0.8-0.3c0.6-0.5,1.2-1.3,1.8-2.6c0.6-1.2,0.9-2.2,0.9-2.9
			c0-0.4-0.1-0.7-0.3-0.9S300,109.5,299.7,109.5z"/>
		<path fill="#616568" d="M238.9,119.2c-0.2,0.3-0.4,0.6-0.4,0.9c0,0.4,0.2,0.8,0.7,1.1c0.5,0.3,1.3,0.5,2.3,0.5
			c0.9,0,1.5-0.1,1.9-0.4s0.6-0.6,0.6-1c0-0.4-0.2-0.6-0.6-0.9c-0.4-0.2-1.1-0.5-2.1-0.7c-0.5-0.1-0.9-0.2-1.2-0.3
			C239.6,118.7,239.1,118.9,238.9,119.2z"/>
		<path fill="#616568" d="M328.4,109.6c-0.3,0-0.7,0.2-1.2,0.7c-0.8,0.8-1.4,2-2,3.6c0.6-0.1,1.1-0.2,1.5-0.3c0.3-0.1,0.7-0.4,1-0.7
			c0.3-0.3,0.6-0.7,0.9-1.2s0.4-1,0.4-1.4c0-0.2-0.1-0.3-0.2-0.4C328.7,109.6,328.6,109.6,328.4,109.6z"/>
		<path fill="#616568" d="M255,109.6c-0.3,0-0.7,0.2-1.2,0.7c-0.8,0.8-1.4,2-2,3.6c0.6-0.1,1.1-0.2,1.5-0.3c0.3-0.1,0.7-0.4,1-0.7
			c0.3-0.3,0.6-0.7,0.9-1.2s0.4-1,0.4-1.4c0-0.2-0.1-0.3-0.2-0.4C255.4,109.6,255.2,109.6,255,109.6z"/>
		<path fill="#616568" d="M244,109.4c-0.4,0-0.6,0.1-0.9,0.3c-0.4,0.3-0.7,0.9-1,1.6c-0.3,0.7-0.4,1.5-0.4,2.1
			c0,0.3,0.1,0.6,0.3,0.8c0.2,0.2,0.5,0.3,0.8,0.3c0.3,0,0.5-0.1,0.8-0.3c0.4-0.4,0.8-0.9,1.1-1.7s0.5-1.5,0.5-2.1
			c0-0.3-0.1-0.5-0.3-0.7S244.3,109.4,244,109.4z"/>
		<path fill="#616568" d="M310.7,109.6c-0.2,0-0.5,0.1-0.7,0.3c-0.5,0.4-1,1.2-1.6,2.5c-0.6,1.2-0.8,2.3-0.8,3.2
			c0,0.3,0.1,0.6,0.2,0.7c0.1,0.2,0.3,0.2,0.4,0.2c0.3,0,0.6-0.2,1-0.5c0.5-0.5,0.9-1.1,1.3-1.8c0.7-1.2,1-2.3,1-3.3
			c0-0.5-0.1-0.9-0.3-1.1C311,109.6,310.9,109.6,310.7,109.6z"/>
		<path fill="#616568" d="M288.9,110.4c-0.3,0-0.5,0.1-0.7,0.2c-0.3,0.2-0.7,0.5-1.1,0.9l-1.7,5.5c0.2,0.3,0.4,0.5,0.6,0.6
			s0.4,0.2,0.6,0.2s0.5-0.1,0.7-0.2c0.2-0.1,0.5-0.3,0.8-0.7s0.6-0.8,0.9-1.3c0.3-0.5,0.5-1.2,0.7-1.8s0.3-1.3,0.3-2
			c0-0.5-0.1-0.9-0.3-1.1C289.4,110.5,289.1,110.4,288.9,110.4z"/>
		<path fill="#616568" d="M361.2,133.9l-4.5-11.9c-0.5-1.3-0.8-2.8-0.8-4.2V102c0-4.4-3.6-8-8-8H228c-4.4,0-8,3.6-8,8v20
			c0,4.4,3.6,8,8,8h115.8c1.4,0,2.9,0.3,4.2,0.8l11.9,4.5C360.7,135.5,361.5,134.7,361.2,133.9z M247.6,111.7c0,0.6-0.2,1.1-0.5,1.6
			c-0.4,0.5-0.9,0.9-1.6,1.2c-0.7,0.3-1.5,0.4-2.3,0.4c-0.2,0-0.5,0-0.7,0c-0.3,0-0.6-0.1-0.9-0.1c-0.5,0.2-0.8,0.4-0.9,0.5
			c-0.1,0.1-0.1,0.2-0.1,0.3c0,0.1,0.1,0.2,0.2,0.3c0.2,0.2,0.5,0.3,0.8,0.3c1.5,0.3,2.4,0.5,2.9,0.7c0.6,0.2,1.1,0.6,1.4,0.9
			c0.3,0.4,0.5,0.8,0.5,1.4c0,0.8-0.4,1.5-1.2,2.1s-2.1,0.9-3.8,0.9c-1.7,0-3-0.3-3.8-0.8c-0.6-0.4-0.9-0.8-0.9-1.3
			c0-0.4,0.2-0.8,0.6-1.1c0.4-0.3,1.2-0.6,2.5-0.9c-0.4-0.2-0.7-0.4-0.9-0.6c-0.2-0.2-0.3-0.5-0.3-0.8c0-0.4,0.2-0.8,0.6-1.2
			c0.4-0.3,1-0.7,1.9-1c-0.7-0.3-1.2-0.6-1.5-1c-0.3-0.4-0.5-0.9-0.5-1.4c0-0.6,0.2-1.1,0.6-1.6c0.4-0.5,0.9-0.9,1.7-1.2
			c0.7-0.3,1.6-0.5,2.5-0.5c0.6,0,1.1,0.1,1.6,0.2c0.2,0.1,0.5,0.2,0.8,0.4h2.9l-0.3,1.1h-1.5C247.5,111,247.6,111.4,247.6,111.7z
			 M257.6,111.7c-0.4,0.6-0.9,1.1-1.6,1.5s-1.3,0.7-2.1,0.9c-0.5,0.1-1.2,0.2-2.1,0.3c-0.1,0.4-0.1,0.8-0.1,1c0,0.5,0.2,0.9,0.5,1.2
			c0.3,0.3,0.7,0.4,1.3,0.4c0.5,0,1-0.1,1.5-0.3c0.5-0.2,1.1-0.6,1.8-1.2l0.3,0.3c-0.8,0.9-1.6,1.5-2.4,1.9s-1.6,0.6-2.6,0.6
			c-1.2,0-2-0.3-2.5-0.8s-0.7-1.1-0.7-1.8c0-1.1,0.3-2.1,1-3.2c0.7-1.1,1.6-1.9,2.8-2.6c1.2-0.6,2.4-1,3.5-1c0.6,0,1.1,0.1,1.4,0.4
			s0.5,0.6,0.5,1C258.1,110.8,257.9,111.3,257.6,111.7z M264.9,110.3h-1.4l-1.8,5.7c-0.1,0.4-0.2,0.6-0.2,0.8c0,0.1,0,0.2,0.1,0.2
			s0.1,0.1,0.2,0.1c0.1,0,0.2,0,0.4-0.1c0.3-0.2,0.7-0.6,1.1-1.2l0.4,0.2c-0.5,0.8-1,1.4-1.6,1.7s-1.2,0.5-1.8,0.5
			c-0.5,0-0.9-0.1-1.1-0.3c-0.3-0.2-0.4-0.5-0.4-0.9c0-0.4,0.1-0.9,0.3-1.5l1.7-5.3h-1.5l0.2-0.7c0.9-0.3,1.7-0.7,2.3-1.1
			s1.4-1.1,2.3-2h0.6l-0.9,2.7h1.4L264.9,110.3z M276.7,118c-0.3-0.2-0.4-0.5-0.4-0.8c0-0.4,0.1-0.8,0.3-1.3l0.5-1.7
			c-0.9,1.2-1.6,2.1-2,2.5c-0.6,0.6-1.2,1.1-1.6,1.3c-0.4,0.2-0.9,0.3-1.3,0.3c-0.4,0-0.7-0.1-1-0.4c-0.3-0.3-0.4-0.6-0.4-1
			c0-0.3,0.1-0.8,0.3-1.3l1.2-3.9c0.2-0.6,0.3-1.1,0.3-1.3c0-0.1,0-0.2-0.1-0.3s-0.2-0.1-0.3-0.2c-0.1,0-0.4-0.1-0.7-0.1l0.1-0.4
			l3.7-0.6h0.6l-2.1,6.6c-0.1,0.3-0.2,0.5-0.2,0.6c0,0.1,0,0.1,0.1,0.1c0.1,0.1,0.1,0.1,0.2,0.1c0.3,0,0.8-0.3,1.3-0.8
			c0.8-0.8,1.6-1.9,2.5-3.3l1-3l2.7-0.1l-2.1,6.4c-0.2,0.5-0.3,0.9-0.3,0.9c0,0.1,0,0.1,0.1,0.2c0.1,0.1,0.1,0.1,0.2,0.1
			c0.1,0,0.2,0,0.3-0.1c0.3-0.2,0.6-0.6,1-1.1l0.4,0.2c-1,1.6-2.1,2.5-3.3,2.5C277.3,118.3,277,118.2,276.7,118z M290.6,116.4
			c-1.3,1.3-2.6,1.9-4.1,1.9c-0.3,0-0.5,0-0.7-0.1s-0.4-0.1-0.8-0.3l-0.6,1.8c-0.2,0.6-0.3,1.1-0.3,1.5c0,0.2,0.1,0.4,0.2,0.5
			s0.5,0.2,1.1,0.3l-0.1,0.4h-5.8l0.1-0.4c0.5,0,0.8-0.1,1.1-0.4c0.3-0.3,0.6-0.8,0.9-1.6l2.6-8.2c0.2-0.6,0.3-1,0.3-1.3
			c0-0.1,0-0.2-0.1-0.3s-0.1-0.1-0.3-0.2s-0.4,0-0.8,0l0.1-0.4l3.6-0.5h0.6l-0.5,1.6c0.8-0.6,1.4-1,1.8-1.3s1-0.3,1.4-0.3
			c0.7,0,1.2,0.2,1.6,0.7s0.5,1,0.5,1.7C292.7,113.3,292,114.9,290.6,116.4z M300.2,118.3c-0.4,0-0.8-0.1-1-0.3
			c-0.2-0.2-0.3-0.5-0.3-0.8c0-0.3,0.1-0.7,0.3-1.3l0.3-1c-0.9,1.4-1.7,2.4-2.3,2.9c-0.5,0.4-1,0.5-1.5,0.5c-0.5,0-1-0.2-1.4-0.6
			c-0.4-0.4-0.6-1-0.6-1.7c0-1,0.2-1.9,0.7-2.9s1-1.7,1.6-2.4c0.6-0.6,1.2-1.1,1.8-1.4c0.6-0.3,1.1-0.4,1.7-0.4
			c0.3,0,0.5,0.1,0.7,0.2c0.2,0.1,0.5,0.3,0.7,0.6l0.8-2.4c0.2-0.6,0.3-1,0.3-1.3c0-0.2-0.1-0.3-0.2-0.4s-0.3-0.2-0.5-0.2
			c-0.1,0-0.2,0-0.4,0l0.1-0.4l3.5-0.6h0.6l-3.5,10.9c-0.2,0.7-0.3,1.1-0.3,1.2c0,0.1,0,0.1,0.1,0.2s0.1,0.1,0.2,0.1
			c0.1,0,0.3-0.1,0.4-0.2c0.3-0.2,0.6-0.5,1-1l0.4,0.2C302.5,117.5,301.4,118.3,300.2,118.3z M312.6,116.8c0.1,0.1,0.1,0.1,0.2,0.1
			c0.2,0,0.4-0.1,0.6-0.3c0.1-0.1,0.4-0.4,0.8-0.9l0.4,0.2c-0.5,0.8-1.1,1.5-1.6,1.9c-0.6,0.4-1.2,0.6-1.9,0.6
			c-0.4,0-0.7-0.1-0.9-0.3s-0.3-0.4-0.3-0.7c0-0.3,0.1-0.7,0.3-1.4l0.3-0.8c-0.8,1.3-1.6,2.2-2.4,2.8c-0.4,0.3-0.9,0.5-1.4,0.5
			c-0.7,0-1.1-0.2-1.4-0.7s-0.4-1-0.4-1.7c0-0.9,0.3-2,0.9-3.2s1.4-2.1,2.4-2.9c0.8-0.6,1.6-0.9,2.3-0.9c0.4,0,0.7,0.1,1,0.3
			s0.4,0.6,0.5,1.2l0.4-1.2l2.5-0.1l-2.1,6.5l-0.2,0.8c0,0.1,0,0.2,0,0.2C312.6,116.7,312.6,116.7,312.6,116.8z M318.8,117
			c0.1,0.1,0.1,0.1,0.2,0.1c0.1,0,0.2,0,0.4-0.1c0.3-0.2,0.7-0.6,1.1-1.2l0.4,0.2c-0.5,0.8-1,1.4-1.6,1.7s-1.2,0.5-1.8,0.5
			c-0.5,0-0.9-0.1-1.1-0.3c-0.3-0.2-0.4-0.5-0.4-0.9c0-0.4,0.1-0.9,0.3-1.5l1.7-5.3h-1.5l0.2-0.7c0.9-0.3,1.7-0.7,2.3-1.1
			s1.4-1.1,2.3-2h0.6l-0.9,2.7h1.4l-0.4,1.1h-1.4l-1.8,5.7c-0.1,0.4-0.2,0.6-0.2,0.8C318.7,116.9,318.7,117,318.8,117z M330.9,111.7
			c-0.4,0.6-0.9,1.1-1.6,1.5s-1.3,0.7-2.1,0.9c-0.5,0.1-1.2,0.2-2.1,0.3c-0.1,0.4-0.1,0.8-0.1,1c0,0.5,0.2,0.9,0.5,1.2
			c0.3,0.3,0.7,0.4,1.3,0.4c0.5,0,1-0.1,1.5-0.3c0.5-0.2,1.1-0.6,1.8-1.2l0.3,0.3c-0.8,0.9-1.6,1.5-2.4,1.9s-1.6,0.6-2.6,0.6
			c-1.2,0-2-0.3-2.5-0.8s-0.7-1.1-0.7-1.8c0-1.1,0.3-2.1,1-3.2c0.7-1.1,1.6-1.9,2.8-2.6c1.2-0.6,2.4-1,3.5-1c0.6,0,1.1,0.1,1.4,0.4
			s0.5,0.6,0.5,1C331.4,110.8,331.2,111.3,330.9,111.7z M339.4,112H339c-0.1-0.8-0.3-1.4-0.8-1.8c-0.5-0.4-1-0.7-1.5-0.7
			c-0.3,0-0.6,0.1-0.8,0.3s-0.3,0.4-0.3,0.6c0,0.2,0,0.4,0.1,0.6s0.3,0.4,0.6,0.7c1.1,1.1,1.8,1.9,2.1,2.3s0.4,0.9,0.4,1.3
			c0,0.5-0.1,1-0.4,1.5s-0.7,0.8-1.3,1.1c-0.6,0.3-1.2,0.4-1.8,0.4c-0.4,0-0.9-0.1-1.5-0.2c-0.4-0.1-0.7-0.2-0.9-0.2
			c-0.2,0-0.3,0-0.4,0.1s-0.2,0.2-0.3,0.3h-0.4l0.5-3.3h0.3c0.3,0.8,0.5,1.3,0.7,1.7c0.2,0.3,0.5,0.6,0.9,0.8s0.7,0.3,1.1,0.3
			c0.4,0,0.7-0.1,1-0.3s0.4-0.5,0.4-0.8c0-0.3-0.1-0.6-0.3-0.9c-0.2-0.3-0.6-0.7-1.2-1.3c-0.8-0.8-1.4-1.5-1.7-1.9
			c-0.2-0.3-0.3-0.7-0.3-1.1c0-0.7,0.3-1.3,0.8-1.8c0.6-0.5,1.4-0.7,2.4-0.7c0.4,0,1,0.1,1.6,0.2c0.3,0.1,0.6,0.1,0.8,0.1
			c0.3,0,0.5-0.1,0.7-0.3h0.4L339.4,112z"/>
	</g>
	<g opacity="0.87">
		<path fill="#616568" d="M511,295h-34.3c-1.1,0-2.1-0.4-2.8-1.2l-5.4-5.4c-0.8-0.8-2-0.8-2.8,0l-5.4,5.4c-0.8,0.8-1.8,1.2-2.8,1.2
			H423c-2.2,0-4,1.8-4,4v28c0,2.2,1.8,4,4,4h88c2.2,0,4-1.8,4-4v-28C515,296.8,513.2,295,511,295z M448.8,319h-8.3v-0.4
			c0.6-0.1,1.1-0.2,1.3-0.5c0.2-0.2,0.3-0.7,0.3-1.5v-4.9c0-0.9-0.1-1.5-0.2-1.7s-0.3-0.4-0.5-0.5s-0.5-0.2-0.8-0.2
			c-1,0-1.9,0.5-2.8,1.4v5.9c0,0.8,0.1,1.3,0.3,1.6s0.7,0.4,1.3,0.4v0.4h-8.3v-0.4c0.7,0,1.2-0.2,1.5-0.4c0.2-0.2,0.3-0.7,0.3-1.5
			v-6.2c0-0.8-0.1-1.3-0.3-1.5s-0.7-0.3-1.4-0.4V308h6.7v1.4c0.8-0.6,1.7-1.1,2.4-1.3s1.6-0.4,2.5-0.4c1.1,0,2,0.2,2.7,0.6
			s1.2,0.9,1.4,1.5c0.2,0.4,0.3,1.3,0.3,2.6v4.3c0,0.8,0.1,1.4,0.3,1.6s0.7,0.3,1.4,0.4V319z M457,316.6c0.8,0.6,1.8,1,2.9,1
			c0.7,0,1.3-0.1,1.9-0.4s1.2-0.7,1.8-1.4l0.6,0.3c-0.9,1.2-1.9,2.1-3,2.6s-2.3,0.8-3.7,0.8c-2.4,0-4.3-0.6-5.5-1.9
			c-1-1-1.5-2.3-1.5-3.8c0-1.8,0.7-3.3,2.2-4.4s3.2-1.6,5.2-1.6c1.7,0,3.1,0.5,4.3,1.4s1.9,2.3,2,4h-9
			C455.4,314.6,456,315.7,457,316.6z M490.1,308.5c-0.5,0-1,0.2-1.3,0.4s-0.7,0.8-1.2,1.8l-4.6,8.7h-1l-4.5-8l-4.4,8h-0.9l-4.4-7.9
			c-0.7-1.2-1.2-2-1.7-2.4c-0.3-0.2-0.7-0.4-1.3-0.5V308h8.3v0.4c-0.6,0-0.9,0.1-1.2,0.2s-0.3,0.2-0.3,0.4c0,0.1,0.2,0.5,0.6,1.2
			l2.4,4.3l2.3-4.3l-0.2-0.3c-0.4-0.6-0.7-1-0.9-1.1s-0.7-0.3-1.2-0.3V308h8.4v0.4c-0.7,0-1.1,0.1-1.2,0.2s-0.3,0.2-0.3,0.4
			c0,0.2,0.2,0.6,0.5,1.1l2.3,4.3l2.1-3.9c0.3-0.6,0.5-0.9,0.5-1.1c0-0.3-0.1-0.5-0.3-0.7s-0.7-0.2-1.3-0.3V308h4.9V308.5z
			 M502.2,317.5c-0.5,0.6-1.1,1-1.9,1.3s-1.8,0.5-2.8,0.5c-0.8,0-1.8-0.2-3.1-0.5c-0.4-0.1-0.6-0.1-0.7-0.1c-0.4,0-0.7,0.2-1,0.6
			h-0.6l-0.3-3.9h0.6c0.5,1,1.3,1.8,2.2,2.3s1.8,0.8,2.6,0.8c0.6,0,1-0.1,1.4-0.3s0.5-0.5,0.5-0.8c0-0.4-0.2-0.7-0.5-1
			s-1.1-0.7-2.4-1.2c-1.8-0.8-3-1.5-3.5-1.9c-0.8-0.6-1.2-1.3-1.2-2.1c0-0.8,0.4-1.6,1.3-2.3s2.1-1,3.8-1c0.9,0,1.8,0.1,2.6,0.4
			c0.3,0.1,0.6,0.2,0.8,0.2c0.2,0,0.4,0,0.5-0.1s0.3-0.2,0.6-0.5h0.6l0.3,3.7h-0.6c-0.7-1.1-1.5-1.9-2.2-2.3s-1.5-0.6-2.3-0.6
			c-0.5,0-0.9,0.1-1.2,0.3s-0.5,0.5-0.5,0.7c0,0.2,0.1,0.4,0.4,0.6c0.4,0.3,1.4,0.9,3.1,1.6s2.9,1.4,3.4,2s0.8,1.2,0.8,1.8
			C502.8,316.3,502.6,316.9,502.2,317.5z"/>
		<path fill="#616568" d="M458.7,308.7c-0.2-0.1-0.6-0.2-1-0.2c-0.6,0-1.1,0.2-1.5,0.6c-0.7,0.7-1,1.6-1,2.9v0.4h4.8
			c0-1.3-0.1-2.1-0.3-2.6S459.2,308.9,458.7,308.7z"/>
	</g>
	<g opacity="0.72">
		<path fill="#616568" d="M261.4,327.4c-0.4,0-0.8,0.3-1.1,0.8s-0.6,1.2-0.7,1.9c0.7,0,1.2-0.2,1.7-0.7c0.4-0.5,0.7-1,0.7-1.4
			c0-0.2,0-0.3-0.1-0.4C261.8,327.4,261.6,327.4,261.4,327.4z"/>
		<path fill="#616568" d="M252.2,327.6c-0.6,0-1.3,0.7-2.1,2.1s-1.2,2.5-1.2,3.2c0,0.2,0,0.3,0.1,0.4s0.2,0.1,0.3,0.1
			c0.4,0,1.1-0.7,2-2.1c0.9-1.4,1.4-2.5,1.4-3.2c0-0.2,0-0.3-0.1-0.4C252.5,327.6,252.4,327.6,252.2,327.6z"/>
		<path fill="#616568" d="M279.8,327.1c-0.3,0-0.7,0.2-1,0.6c-0.3,0.4-0.7,0.9-1,1.6c-0.3,0.6-0.5,1.3-0.7,2
			c-0.2,0.7-0.3,1.2-0.3,1.6c0,0.2,0,0.4,0.1,0.5c0.1,0.1,0.2,0.2,0.4,0.2c0.3,0,0.7-0.2,1.1-0.6c0.4-0.4,0.7-0.9,1-1.5
			c0.3-0.6,0.5-1.2,0.7-1.9s0.3-1.2,0.3-1.7c0-0.2,0-0.4-0.1-0.5C280.1,327.1,280,327.1,279.8,327.1z"/>
		<path fill="#616568" d="M306.1,327.4c-0.4,0-0.8,0.3-1.1,0.8s-0.6,1.2-0.7,1.9c0.7,0,1.2-0.2,1.7-0.7c0.4-0.5,0.7-1,0.7-1.4
			c0-0.2,0-0.3-0.1-0.4C306.4,327.4,306.3,327.4,306.1,327.4z"/>
		<path fill="#616568" d="M370,312h-93c-2,0-3.9-0.7-5.3-2l-5.3-4.7c-0.8-0.7-2-0.7-2.7,0.1l-4.3,4.3c-1.5,1.5-3.5,2.3-5.7,2.3H232
			c-2.2,0-4,1.8-4,4v28c0,2.2,1.8,4,4,4h138c2.2,0,4-1.8,4-4v-28C374,313.8,372.2,312,370,312z M253.5,332.3c-1.4,1.4-3,2.1-4.9,2.1
			c-0.8,0-1.4-0.2-1.8-0.6c-0.4-0.4-0.6-0.9-0.6-1.5c0-0.3,0-0.6,0.1-0.9c0.1-0.3,0.2-0.6,0.3-0.9l2.5-5.9c0.1-0.2,0.1-0.3,0.2-0.4
			c0-0.1,0.1-0.2,0.1-0.3c0-0.1-0.1-0.2-0.2-0.3c-0.1-0.1-0.4-0.1-0.8-0.1c0,0-0.1-0.1-0.1-0.1c0-0.1-0.1-0.2-0.1-0.2s0-0.1,0-0.2
			c0-0.1,0.1-0.1,0.1-0.1c0.6-0.1,1.4-0.2,2.2-0.4c0.9-0.2,1.6-0.3,2-0.5c0,0,0.1,0,0.2-0.1s0.2,0,0.3,0c0,0,0.1,0,0.1,0.1
			c0,0,0,0.1,0,0.1c0,0.1,0,0.1,0,0.2c0,0.1,0,0.2-0.1,0.2l-2.2,5.2c0.5-0.5,1-0.8,1.5-1s1-0.3,1.5-0.3c0.6,0,1.1,0.2,1.3,0.5
			c0.3,0.3,0.4,0.8,0.4,1.4C255.7,329.5,255,330.9,253.5,332.3z M262.9,330c-0.8,0.6-2,0.9-3.5,0.9c0,0.1-0.1,0.3-0.1,0.4
			c0,0.1,0,0.3,0,0.4c0,0.4,0.1,0.7,0.3,1c0.2,0.3,0.5,0.4,0.9,0.4c0.5,0,0.9-0.1,1.4-0.4s0.8-0.6,1-0.9c0.1,0,0.1,0,0.1,0
			c0,0,0.1,0,0.1,0.1c0,0,0.1,0.1,0.1,0.1c0,0,0.1,0.1,0.1,0.2c0,0.1,0.1,0.1,0,0.2c-0.3,0.6-0.8,1-1.6,1.5
			c-0.8,0.4-1.5,0.6-2.3,0.6c-0.9,0-1.6-0.2-2.2-0.7c-0.6-0.5-0.9-1-0.9-1.7c0-1.5,0.6-2.8,1.9-3.9c1.3-1.2,2.5-1.8,3.7-1.8
			c0.8,0,1.4,0.2,1.7,0.6c0.3,0.4,0.5,0.8,0.5,1.3C264.2,328.7,263.8,329.4,262.9,330z M273,328.8c-0.3,0.2-0.6,0.3-1,0.3
			c-0.3,0-0.5-0.1-0.7-0.3c-0.1-0.2-0.2-0.4-0.3-0.6c-0.1-0.2-0.2-0.5-0.3-0.7c-0.1-0.2-0.2-0.3-0.5-0.3c-0.2,0-0.3,0.1-0.6,0.3
			c-0.2,0.2-0.4,0.5-0.7,0.9c-0.2,0.4-0.4,0.9-0.6,1.5s-0.2,1.3-0.2,1.9c0,0.5,0.1,0.8,0.3,1c0.2,0.2,0.5,0.3,0.7,0.3
			c0.3,0,0.7-0.2,1.2-0.5s0.9-0.6,1.1-0.9c0,0,0.1,0,0.1,0c0.1,0,0.1,0.1,0.2,0.1c0,0,0.1,0.1,0.1,0.2s0.1,0.1,0,0.2
			c-0.2,0.3-0.6,0.7-1.4,1.2c-0.8,0.5-1.7,0.8-2.6,0.8c-0.7,0-1.4-0.2-2-0.7c-0.6-0.5-0.9-1.2-0.9-2.1c0-0.5,0.1-1.1,0.4-1.7
			c0.3-0.6,0.7-1.1,1.3-1.7c0.5-0.5,1.1-0.9,1.8-1.3c0.7-0.4,1.5-0.6,2.3-0.6c0.7,0,1.3,0.2,1.8,0.6c0.5,0.4,0.7,0.8,0.7,1.2
			C273.4,328.3,273.3,328.6,273,328.8z M282.7,331c-0.3,0.6-0.6,1.2-1.1,1.7c-0.5,0.5-1.1,0.9-1.8,1.2c-0.7,0.3-1.5,0.5-2.4,0.5
			c-1,0-1.9-0.3-2.5-0.8c-0.6-0.5-0.9-1.2-0.9-2c0-0.7,0.1-1.3,0.4-1.9c0.2-0.6,0.6-1.2,1.1-1.7c0.5-0.5,1.1-0.9,1.8-1.2
			s1.5-0.5,2.4-0.5c1,0,1.9,0.3,2.5,0.8c0.6,0.5,0.9,1.2,0.9,2C283.1,329.7,283,330.3,282.7,331z M298.5,333.4c-0.9,0.7-1.8,1-2.6,1
			c-0.5,0-0.9-0.1-1.1-0.4c-0.2-0.2-0.3-0.5-0.3-0.8c0-0.2,0-0.3,0.1-0.5c0-0.1,0.1-0.3,0.2-0.6l1.7-3.2c0.1-0.2,0.1-0.3,0.2-0.4
			c0.1-0.1,0.1-0.2,0.1-0.3c0-0.1,0-0.2-0.1-0.2c0,0-0.1-0.1-0.2-0.1c-0.4,0-0.9,0.4-1.5,1.1c-0.6,0.7-1.4,1.8-2.3,3.4l-0.8,1.4
			c-0.1,0.1-0.3,0.2-0.6,0.3s-0.7,0.1-0.9,0.1c-0.4,0-0.7,0-1-0.1c-0.3-0.1-0.5-0.2-0.4-0.2l2.6-4.9c0.1-0.2,0.2-0.3,0.2-0.5
			s0.1-0.2,0.1-0.3c0-0.1,0-0.2-0.1-0.2c0,0-0.1-0.1-0.2-0.1c-0.4,0-1,0.4-1.6,1.1c-0.7,0.8-1.5,1.9-2.4,3.3l-0.7,1.4
			c-0.1,0.1-0.3,0.2-0.6,0.3c-0.3,0.1-0.7,0.1-1,0.1c-0.4,0-0.7,0-1-0.1c-0.3-0.1-0.4-0.2-0.4-0.2l2.5-5c0.1-0.2,0.1-0.3,0.2-0.4
			c0.1-0.1,0.1-0.2,0.1-0.3s0-0.2-0.1-0.2c0,0-0.1-0.1-0.2-0.1c-0.1,0-0.5,0.2-0.9,0.7c-0.5,0.4-0.7,0.7-0.8,0.7
			c-0.1,0-0.2-0.1-0.3-0.2c-0.1-0.1-0.2-0.2-0.2-0.2c0-0.1,0.1-0.3,0.4-0.6c0.2-0.3,0.5-0.5,0.9-0.8c0.3-0.3,0.7-0.5,1.2-0.7
			c0.5-0.2,0.9-0.3,1.2-0.3c0.5,0,1,0.1,1.2,0.4c0.3,0.3,0.4,0.6,0.4,1c0,0.2,0,0.3-0.1,0.5c0,0.2-0.1,0.4-0.2,0.6l-0.1,0.2
			c0.6-0.9,1.3-1.5,2-2s1.4-0.7,2.1-0.7c0.6,0,0.9,0.2,1.1,0.5c0.2,0.3,0.3,0.6,0.3,0.9c0,0.2,0,0.4-0.1,0.6s-0.1,0.4-0.2,0.6
			l-0.1,0.2c0.6-0.8,1.2-1.5,1.9-2c0.7-0.5,1.4-0.7,2-0.7c0.6,0,1,0.1,1.3,0.4c0.3,0.3,0.4,0.6,0.4,1c0,0.2,0,0.4-0.1,0.5
			c0,0.2-0.1,0.4-0.2,0.6l-1.4,2.8c-0.1,0.3-0.2,0.5-0.3,0.6c0,0.1-0.1,0.2-0.1,0.3c0,0.1,0,0.1,0,0.1c0,0,0.1,0,0.1,0
			c0.2,0,0.6-0.2,1-0.5c0.4-0.4,0.6-0.5,0.7-0.5s0.2,0.1,0.3,0.2s0.2,0.2,0.2,0.2C299.9,332.3,299.5,332.7,298.5,333.4z M307.6,330
			c-0.8,0.6-2,0.9-3.5,0.9c0,0.1-0.1,0.3-0.1,0.4c0,0.1,0,0.3,0,0.4c0,0.4,0.1,0.7,0.3,1c0.2,0.3,0.5,0.4,0.9,0.4
			c0.5,0,0.9-0.1,1.4-0.4s0.8-0.6,1-0.9c0.1,0,0.1,0,0.1,0c0,0,0.1,0,0.1,0.1c0,0,0.1,0.1,0.1,0.1c0,0,0.1,0.1,0.1,0.2
			c0,0.1,0.1,0.1,0,0.2c-0.3,0.6-0.8,1-1.6,1.5c-0.8,0.4-1.5,0.6-2.3,0.6c-0.9,0-1.6-0.2-2.2-0.7c-0.6-0.5-0.9-1-0.9-1.7
			c0-1.5,0.6-2.8,1.9-3.9c1.3-1.2,2.5-1.8,3.7-1.8c0.8,0,1.4,0.2,1.7,0.6c0.3,0.4,0.5,0.8,0.5,1.3
			C308.8,328.7,308.4,329.4,307.6,330z M321,333.5c-0.8,0.6-1.6,0.8-2.2,0.8c-0.5,0-0.9-0.1-1.2-0.3c-0.3-0.2-0.4-0.4-0.4-0.8
			c0-0.3,0-0.5,0.1-0.7c0.1-0.2,0.2-0.4,0.3-0.6c-0.6,0.7-1.1,1.3-1.7,1.7c-0.6,0.4-1.2,0.6-1.9,0.6c-0.6,0-1.1-0.2-1.4-0.6
			s-0.5-0.9-0.5-1.5c0-1.2,0.8-2.5,2.3-3.9c1.5-1.4,2.9-2.1,4.1-2.1c0.4,0,0.7,0.1,0.9,0.3c0.3,0.2,0.4,0.4,0.4,0.7l0.3-0.7
			c0-0.1,0.2-0.1,0.5-0.2c0.3,0,0.6-0.1,0.9-0.1c0.4,0,0.7,0,1,0.1c0.3,0.1,0.5,0.2,0.4,0.2l-2.4,5c-0.1,0.2-0.2,0.4-0.2,0.6
			c0,0.1-0.1,0.2-0.1,0.3c0,0.1,0,0.1,0,0.2c0,0,0.1,0,0.1,0c0.3,0,0.5-0.1,0.8-0.4c0.3-0.3,0.5-0.4,0.6-0.4c0.1,0,0.2,0.1,0.3,0.2
			s0.1,0.2,0.1,0.2C322.2,332.6,321.8,333,321,333.5z M331.2,333.7c-0.4,1.7-1.2,3-2.2,3.8c-1,0.9-2.2,1.3-3.5,1.3
			c-0.8,0-1.5-0.2-2.1-0.6s-0.9-0.8-0.9-1.3c0-0.4,0.1-0.7,0.4-0.9s0.7-0.4,1.2-0.4c0.4,0,0.7,0.1,1,0.3s0.4,0.5,0.6,0.7
			c0.1,0.2,0.3,0.5,0.5,0.7s0.4,0.3,0.6,0.3c0.3,0,0.5-0.2,0.7-0.6c0.2-0.4,0.3-0.9,0.4-1.5l1.8-7.6c0,0,0-0.1,0-0.1
			c0,0-0.1-0.1-0.2-0.1h-1.5c0,0-0.1,0-0.1-0.1c0-0.1,0-0.2,0-0.2c0-0.1,0-0.1,0.1-0.2c0-0.1,0.1-0.1,0.1-0.1
			c0.8-0.1,1.3-0.2,1.6-0.3c0.3-0.1,0.4-0.2,0.4-0.3c0.4-1.3,1.2-2.5,2.4-3.5c1.2-1,2.5-1.5,4.1-1.5c0.6,0,1.2,0.2,1.8,0.6
			c0.5,0.4,0.8,0.8,0.8,1.2c0,0.4-0.1,0.7-0.4,1c-0.3,0.3-0.6,0.4-1.1,0.4c-0.4,0-0.6-0.1-0.8-0.3c-0.2-0.2-0.3-0.4-0.4-0.7
			s-0.2-0.5-0.4-0.7c-0.1-0.2-0.3-0.3-0.6-0.3c-0.6,0-1,0.3-1.3,0.8c-0.3,0.5-0.7,1.6-1.1,3.2h2c0.1,0,0.1,0,0.1,0.1s0,0.2,0,0.3
			c0,0.1,0,0.2-0.1,0.4s-0.1,0.2-0.2,0.2l-2.1-0.1L331.2,333.7z M344.6,326.7l-2.4,5c-0.1,0.2-0.2,0.4-0.2,0.6
			c0,0.1-0.1,0.2-0.1,0.3c0,0.1,0,0.1,0,0.2c0,0,0.1,0,0.1,0c0.3,0,0.5-0.1,0.8-0.4c0.3-0.3,0.5-0.4,0.6-0.4c0.1,0,0.2,0.1,0.3,0.2
			s0.1,0.2,0.1,0.2c0,0.2-0.4,0.6-1.2,1.2c-0.8,0.6-1.6,0.8-2.2,0.8c-0.5,0-0.9-0.1-1.2-0.3c-0.3-0.2-0.4-0.4-0.4-0.8
			c0-0.3,0-0.5,0.1-0.7c0.1-0.2,0.2-0.4,0.3-0.6c-0.6,0.7-1.1,1.3-1.7,1.7c-0.6,0.4-1.2,0.6-1.9,0.6c-0.6,0-1.1-0.2-1.4-0.6
			s-0.5-0.9-0.5-1.5c0-1.2,0.8-2.5,2.3-3.9c1.5-1.4,2.9-2.1,4.1-2.1c0.4,0,0.7,0.1,0.9,0.3c0.3,0.2,0.4,0.4,0.4,0.7l0.3-0.7
			c0-0.1,0.2-0.1,0.5-0.2c0.3,0,0.6-0.1,0.9-0.1c0.4,0,0.7,0,1,0.1C344.6,326.6,344.7,326.6,344.6,326.7z M354.3,333.5
			c-0.8,0.6-1.6,0.9-2.4,0.9c-0.5,0-0.9-0.1-1.1-0.2c-0.2-0.2-0.4-0.4-0.4-0.7c0-0.2,0-0.3,0.1-0.5c0-0.2,0.1-0.4,0.3-0.7l1.3-2.8
			c0.1-0.2,0.2-0.4,0.2-0.5c0-0.1,0.1-0.3,0.1-0.4c0-0.2,0-0.3-0.1-0.4c0-0.1-0.2-0.1-0.3-0.1c-0.3,0-0.8,0.4-1.4,1.2
			s-1.2,1.8-1.7,2.8l-0.7,1.9c0,0.1-0.2,0.2-0.6,0.2c-0.4,0.1-0.7,0.1-0.8,0.1c-0.1,0-0.4,0-0.9-0.1s-0.7-0.1-0.6-0.2l1.9-5.1
			c0.1-0.2,0.1-0.4,0.2-0.5c0-0.1,0.1-0.2,0.1-0.3c0-0.1,0-0.1,0-0.1c0,0-0.1-0.1-0.1-0.1c-0.2,0-0.4,0.2-0.7,0.5
			c-0.3,0.3-0.5,0.5-0.6,0.5s-0.2-0.1-0.3-0.2c-0.1-0.1-0.2-0.2-0.2-0.2c0-0.2,0.3-0.6,1-1.2s1.4-0.9,2.1-0.9c0.5,0,1,0.1,1.3,0.4
			c0.3,0.3,0.5,0.6,0.5,1.1c0,0.1,0,0.2,0,0.3c0,0.1,0,0.2-0.1,0.2l-0.3,0.6c0.4-0.7,1-1.3,1.8-1.8c0.7-0.5,1.5-0.8,2.2-0.8
			c0.4,0,0.8,0.1,1.2,0.3s0.5,0.6,0.5,1c0,0.2,0,0.5-0.1,0.8c-0.1,0.3-0.2,0.5-0.3,0.8l-1.1,2.6c-0.1,0.2-0.2,0.4-0.2,0.6
			c-0.1,0.1-0.1,0.2-0.1,0.3c0,0.1,0,0.1,0,0.2c0,0,0.1,0,0.1,0c0.3,0,0.5-0.1,0.8-0.4c0.3-0.3,0.5-0.4,0.6-0.4
			c0.1,0,0.2,0.1,0.3,0.2s0.2,0.2,0.2,0.2C355.6,332.5,355.2,332.9,354.3,333.5z"/>
		<path fill="#616568" d="M340.7,327.4c-0.2,0-0.6,0.2-1,0.5s-0.9,0.8-1.4,1.4c-0.4,0.5-0.8,1-1.2,1.6c-0.4,0.6-0.5,1-0.5,1.4
			c0,0.2,0,0.3,0.1,0.4c0.1,0.1,0.2,0.1,0.4,0.1c0.5,0,1.3-0.7,2.3-2c1.1-1.4,1.6-2.4,1.6-3c0-0.1,0-0.2-0.1-0.3
			S340.8,327.4,340.7,327.4z"/>
		<path fill="#616568" d="M319,327.4c-0.2,0-0.6,0.2-1,0.5s-0.9,0.8-1.4,1.4c-0.4,0.5-0.8,1-1.2,1.6c-0.4,0.6-0.5,1-0.5,1.4
			c0,0.2,0,0.3,0.1,0.4c0.1,0.1,0.2,0.1,0.4,0.1c0.5,0,1.3-0.7,2.3-2c1.1-1.4,1.6-2.4,1.6-3c0-0.1,0-0.2-0.1-0.3
			S319.1,327.4,319,327.4z"/>
	</g>
	<path opacity="0.67" fill="#616568" d="M170,194h16.5c1,0,1.9,0.4,2.7,1l6.5,5.7c0.8,0.7,2,0.7,2.7-0.1l5.5-5.5
		c0.8-0.8,1.8-1.2,2.8-1.2H330c1.1,0,2-0.9,2-2v-32c0-1.1-0.9-2-2-2h-16.5c-1,0-1.9-0.4-2.7-1l-6.5-5.7c-0.8-0.7-2-0.7-2.7,0.1
		l-5.5,5.5c-0.8,0.8-1.8,1.2-2.8,1.2H170c-1.1,0-2,0.9-2,2v32C168,193.1,168.9,194,170,194z M308.3,179h0.5c0.3,0.8,0.7,1.3,1,1.7
		s0.7,0.6,1.2,0.8s1,0.3,1.4,0.3c0.5,0,1-0.1,1.3-0.3s0.5-0.5,0.5-0.8c0-0.3-0.1-0.6-0.3-0.9c-0.2-0.3-0.8-0.7-1.6-1.3
		c-1.1-0.8-1.9-1.5-2.3-1.9c-0.3-0.3-0.4-0.7-0.4-1.1c0-0.7,0.4-1.3,1.2-1.8c0.8-0.5,1.8-0.7,3.2-0.7c0.6,0,1.3,0.1,2.2,0.2
		c0.4,0.1,0.8,0.1,1.1,0.1c0.4,0,0.7-0.1,0.9-0.3h0.5l-0.6,3h-0.5c-0.1-0.8-0.4-1.4-1.1-1.8s-1.3-0.7-2.1-0.7
		c-0.4,0-0.8,0.1-1.1,0.3s-0.4,0.4-0.4,0.6c0,0.2,0.1,0.4,0.2,0.6s0.4,0.4,0.8,0.7c1.5,1.1,2.5,1.9,2.8,2.3s0.5,0.9,0.5,1.3
		c0,0.5-0.2,1-0.6,1.5s-1,0.8-1.8,1.1c-0.8,0.3-1.6,0.4-2.4,0.4c-0.6,0-1.3-0.1-2.1-0.2c-0.5-0.1-1-0.2-1.2-0.2
		c-0.2,0-0.4,0-0.6,0.1s-0.3,0.2-0.5,0.3h-0.5L308.3,179z M292.5,179.6l1.7-3.9c0.3-0.6,0.4-1.1,0.4-1.3c0-0.1,0-0.2-0.1-0.3
		s-0.2-0.1-0.4-0.2s-0.5-0.1-1-0.1l0.1-0.4l5-0.6h0.9l-2.8,6.6c-0.1,0.3-0.2,0.5-0.2,0.6c0,0.1,0,0.1,0.1,0.1
		c0.1,0.1,0.2,0.1,0.3,0.1c0.4,0,1-0.3,1.8-0.8c1.1-0.8,2.2-1.9,3.4-3.3l1.3-3l3.7-0.1l-2.8,6.4c-0.2,0.5-0.4,0.9-0.4,0.9
		c0,0.1,0,0.1,0.1,0.2c0.1,0.1,0.1,0.1,0.2,0.1c0.1,0,0.3,0,0.4-0.1c0.4-0.2,0.8-0.6,1.4-1.1l0.5,0.2c-1.4,1.6-2.9,2.5-4.5,2.5
		c-0.6,0-1.1-0.1-1.4-0.3s-0.5-0.5-0.5-0.8c0-0.4,0.1-0.8,0.4-1.3l0.7-1.7c-1.3,1.2-2.2,2.1-2.8,2.5c-0.9,0.6-1.6,1.1-2.2,1.3
		c-0.6,0.2-1.2,0.3-1.7,0.3c-0.5,0-1-0.1-1.3-0.4c-0.4-0.3-0.6-0.6-0.6-1C292.1,180.6,292.2,180.1,292.5,179.6z M276.1,173.9
		c1.6-0.6,3.2-1,4.8-1c0.8,0,1.4,0.1,1.9,0.4s0.6,0.6,0.6,1c0,0.5-0.2,0.9-0.6,1.4c-0.6,0.6-1.3,1.1-2.1,1.5s-1.8,0.7-2.9,0.9
		c-0.7,0.1-1.7,0.2-2.9,0.3c-0.1,0.4-0.1,0.8-0.1,1c0,0.5,0.2,0.9,0.6,1.2c0.4,0.3,1,0.4,1.7,0.4c0.7,0,1.4-0.1,2.1-0.3
		c0.7-0.2,1.5-0.6,2.4-1.2l0.4,0.3c-1.1,0.9-2.2,1.5-3.3,1.9s-2.2,0.6-3.5,0.6c-1.6,0-2.8-0.3-3.4-0.8s-0.9-1.1-0.9-1.8
		c0-1.1,0.5-2.1,1.4-3.2C273.3,175.4,274.5,174.6,276.1,173.9z M257.6,179.7c0.5-0.3,1.4-0.7,2.6-1c-1-0.3-1.6-0.6-2.1-1
		c-0.4-0.4-0.6-0.9-0.6-1.4c0-0.6,0.3-1.1,0.8-1.6c0.5-0.5,1.3-0.9,2.3-1.2c1-0.3,2.2-0.5,3.4-0.5c0.8,0,1.6,0.1,2.2,0.2
		c0.3,0.1,0.7,0.2,1.2,0.4h3.9l-0.5,1.1h-2c0.3,0.4,0.5,0.7,0.5,1.1c0,0.6-0.2,1.1-0.7,1.6c-0.5,0.5-1.2,0.9-2.1,1.2
		c-0.9,0.3-2,0.4-3.1,0.4c-0.3,0-0.6,0-1,0c-0.4,0-0.8-0.1-1.2-0.1c-0.6,0.2-1,0.4-1.2,0.5c-0.1,0.1-0.2,0.2-0.2,0.3
		c0,0.1,0.1,0.2,0.2,0.3c0.3,0.2,0.6,0.3,1.1,0.3c2,0.3,3.3,0.5,3.9,0.7c0.9,0.2,1.5,0.6,2,0.9c0.4,0.4,0.7,0.8,0.7,1.4
		c0,0.8-0.6,1.5-1.7,2.1s-2.9,0.9-5.2,0.9c-2.4,0-4.1-0.3-5.2-0.8c-0.8-0.4-1.2-0.8-1.2-1.3c0-0.4,0.3-0.8,0.8-1.1s1.7-0.6,3.4-0.9
		c-0.6-0.2-1-0.4-1.2-0.6c-0.3-0.2-0.4-0.5-0.4-0.8C256.8,180.4,257.1,180,257.6,179.7z M242.7,176.7c0.8-1.2,1.9-2.1,3.3-2.9
		c1.1-0.6,2.2-0.9,3.2-0.9c0.5,0,1,0.1,1.3,0.3s0.6,0.6,0.7,1.2l0.5-1.2l3.5-0.1l-2.8,6.5l-0.3,0.8c0,0.1,0,0.2,0,0.2
		c0,0.1,0,0.1,0.1,0.2c0.1,0.1,0.2,0.1,0.3,0.1c0.2,0,0.5-0.1,0.8-0.3c0.1-0.1,0.5-0.4,1.1-0.9l0.5,0.2c-0.7,0.8-1.4,1.5-2.2,1.9
		s-1.6,0.6-2.5,0.6c-0.6,0-1-0.1-1.3-0.3s-0.4-0.4-0.4-0.7c0-0.3,0.2-0.7,0.5-1.4l0.4-0.8c-1.1,1.3-2.2,2.2-3.3,2.8
		c-0.6,0.3-1.2,0.5-1.9,0.5c-0.9,0-1.5-0.2-1.9-0.7s-0.6-1-0.6-1.7C241.4,179,241.9,177.9,242.7,176.7z M229.9,179h0.5
		c0.3,0.8,0.7,1.3,1,1.7s0.7,0.6,1.2,0.8s1,0.3,1.4,0.3c0.5,0,1-0.1,1.3-0.3s0.5-0.5,0.5-0.8c0-0.3-0.1-0.6-0.3-0.9
		c-0.2-0.3-0.8-0.7-1.6-1.3c-1.1-0.8-1.9-1.5-2.3-1.9c-0.3-0.3-0.4-0.7-0.4-1.1c0-0.7,0.4-1.3,1.2-1.8c0.8-0.5,1.8-0.7,3.2-0.7
		c0.6,0,1.3,0.1,2.2,0.2c0.4,0.1,0.8,0.1,1.1,0.1c0.4,0,0.7-0.1,0.9-0.3h0.5l-0.6,3h-0.5c-0.1-0.8-0.4-1.4-1.1-1.8s-1.3-0.7-2.1-0.7
		c-0.4,0-0.8,0.1-1.1,0.3s-0.4,0.4-0.4,0.6c0,0.2,0.1,0.4,0.2,0.6s0.4,0.4,0.8,0.7c1.5,1.1,2.5,1.9,2.8,2.3s0.5,0.9,0.5,1.3
		c0,0.5-0.2,1-0.6,1.5s-1,0.8-1.8,1.1c-0.8,0.3-1.6,0.4-2.4,0.4c-0.6,0-1.3-0.1-2.1-0.2c-0.5-0.1-1-0.2-1.2-0.2
		c-0.2,0-0.4,0-0.6,0.1s-0.3,0.2-0.5,0.3h-0.5L229.9,179z M218.1,179h0.5c0.3,0.8,0.7,1.3,1,1.7s0.7,0.6,1.2,0.8s1,0.3,1.4,0.3
		c0.5,0,1-0.1,1.3-0.3s0.5-0.5,0.5-0.8c0-0.3-0.1-0.6-0.3-0.9c-0.2-0.3-0.8-0.7-1.6-1.3c-1.1-0.8-1.9-1.5-2.3-1.9
		c-0.3-0.3-0.4-0.7-0.4-1.1c0-0.7,0.4-1.3,1.2-1.8c0.8-0.5,1.8-0.7,3.2-0.7c0.6,0,1.3,0.1,2.2,0.2c0.4,0.1,0.8,0.1,1.1,0.1
		c0.4,0,0.7-0.1,0.9-0.3h0.5l-0.6,3h-0.5c-0.1-0.8-0.4-1.4-1.1-1.8s-1.3-0.7-2.1-0.7c-0.4,0-0.8,0.1-1.1,0.3s-0.4,0.4-0.4,0.6
		c0,0.2,0.1,0.4,0.2,0.6s0.4,0.4,0.8,0.7c1.5,1.1,2.5,1.9,2.8,2.3s0.5,0.9,0.5,1.3c0,0.5-0.2,1-0.6,1.5s-1,0.8-1.8,1.1
		c-0.8,0.3-1.6,0.4-2.4,0.4c-0.6,0-1.3-0.1-2.1-0.2c-0.5-0.1-1-0.2-1.2-0.2c-0.2,0-0.4,0-0.6,0.1s-0.3,0.2-0.5,0.3h-0.5L218.1,179z
		 M205.8,176.5c0.9-1.1,2.2-1.9,3.8-2.6c1.6-0.6,3.2-1,4.8-1c0.8,0,1.4,0.1,1.9,0.4s0.6,0.6,0.6,1c0,0.5-0.2,0.9-0.6,1.4
		c-0.6,0.6-1.3,1.1-2.1,1.5s-1.8,0.7-2.9,0.9c-0.7,0.1-1.7,0.2-2.9,0.3c-0.1,0.4-0.1,0.8-0.1,1c0,0.5,0.2,0.9,0.6,1.2
		c0.4,0.3,1,0.4,1.7,0.4c0.7,0,1.4-0.1,2.1-0.3c0.7-0.2,1.5-0.6,2.4-1.2l0.4,0.3c-1.1,0.9-2.2,1.5-3.3,1.9s-2.2,0.6-3.5,0.6
		c-1.6,0-2.8-0.3-3.4-0.8s-0.9-1.1-0.9-1.8C204.4,178.6,204.9,177.6,205.8,176.5z M184,174.1c-0.1-0.1-0.2-0.1-0.4-0.2
		s-0.5-0.1-1-0.1l0.1-0.4l5-0.6h0.9l-1.9,4.2c1.3-1.3,2.2-2.2,2.8-2.6c0.8-0.7,1.5-1.1,2.1-1.3s1.1-0.3,1.7-0.3
		c0.6,0,1.1,0.1,1.4,0.4s0.4,0.5,0.4,0.8c0,0.3-0.1,0.8-0.4,1.4l-0.7,1.6c1.3-1.3,2.2-2.2,2.7-2.6c0.9-0.7,1.6-1.1,2.2-1.3
		c0.4-0.2,0.9-0.3,1.4-0.3c0.5,0,0.9,0.1,1.3,0.3c0.3,0.2,0.5,0.5,0.5,0.9c0,0.4-0.1,1-0.4,1.6l-1.6,3.6c-0.2,0.5-0.4,0.9-0.4,1
		c0,0.1,0,0.1,0.1,0.1c0.1,0,0.1,0.1,0.2,0.1c0.1,0,0.2,0,0.3-0.1c0.4-0.2,0.7-0.5,1.1-0.8c0.1-0.1,0.2-0.2,0.4-0.4l0.5,0.2
		c-0.7,0.8-1.4,1.5-2.2,1.8c-0.8,0.4-1.5,0.6-2.2,0.6c-0.6,0-1.1-0.1-1.4-0.3s-0.5-0.5-0.5-0.8c0-0.3,0.1-0.7,0.4-1.3l1.7-3.8
		c0.2-0.5,0.3-0.9,0.3-1c0,0,0-0.1-0.1-0.1s-0.1-0.1-0.2-0.1c-0.1,0-0.3,0-0.4,0.1c-0.2,0.1-0.5,0.2-0.9,0.5s-0.9,0.8-1.7,1.5
		s-1.2,1.3-1.5,1.7c-0.3,0.4-0.6,0.9-0.8,1.5l-0.9,2h-3.7l2.7-6.4c0.1-0.3,0.2-0.6,0.2-0.7c0,0,0-0.1-0.1-0.1
		c-0.1,0-0.1-0.1-0.2-0.1c-0.4,0-0.9,0.3-1.7,0.9c-1.2,1-2.3,2.2-3.3,3.5l-1.2,2.8H181l2.8-6.3c0.3-0.6,0.4-1.1,0.4-1.3
		C184.2,174.3,184.1,174.2,184,174.1z"/>
	<path opacity="0.67" fill="#616568" d="M278.5,176.8c0.5-0.3,0.8-0.7,1.2-1.2s0.5-1,0.5-1.4c0-0.2-0.1-0.3-0.2-0.4
		s-0.3-0.2-0.6-0.2c-0.5,0-1,0.2-1.6,0.7c-1.1,0.8-2,2-2.7,3.6c0.9-0.1,1.5-0.2,2-0.3S278,177.1,278.5,176.8z"/>
	<path opacity="0.67" fill="#616568" d="M246.1,180.5c0.4,0,0.9-0.2,1.3-0.5c0.6-0.5,1.2-1.1,1.7-1.8c0.9-1.2,1.4-2.3,1.4-3.3
		c0-0.5-0.1-0.9-0.4-1.1c-0.2-0.2-0.4-0.2-0.7-0.2s-0.6,0.1-0.9,0.3c-0.7,0.4-1.4,1.2-2.1,2.5c-0.8,1.2-1.1,2.3-1.1,3.2
		c0,0.3,0.1,0.6,0.3,0.7C245.7,180.4,245.9,180.5,246.1,180.5z"/>
	<path opacity="0.67" fill="#616568" d="M256.9,184.1c0,0.4,0.3,0.8,1,1.1c0.7,0.3,1.7,0.5,3.2,0.5c1.2,0,2.1-0.1,2.7-0.4
		s0.8-0.6,0.8-1c0-0.4-0.3-0.6-0.8-0.9c-0.5-0.2-1.5-0.5-2.9-0.7c-0.7-0.1-1.2-0.2-1.6-0.3c-0.9,0.2-1.6,0.5-1.9,0.8
		C257,183.5,256.9,183.8,256.9,184.1z"/>
	<path opacity="0.67" fill="#616568" d="M212,176.8c0.5-0.3,0.8-0.7,1.2-1.2s0.5-1,0.5-1.4c0-0.2-0.1-0.3-0.2-0.4s-0.3-0.2-0.6-0.2
		c-0.5,0-1,0.2-1.6,0.7c-1.1,0.8-2,2-2.7,3.6c0.9-0.1,1.5-0.2,2-0.3S211.5,177.1,212,176.8z"/>
	<path opacity="0.67" fill="#616568" d="M262.6,178.5c0.4,0,0.7-0.1,1-0.3c0.6-0.4,1-0.9,1.5-1.7s0.6-1.5,0.6-2.1
		c0-0.3-0.1-0.5-0.4-0.7s-0.6-0.3-1-0.3c-0.5,0-0.9,0.1-1.2,0.3c-0.5,0.3-1,0.9-1.4,1.6c-0.4,0.7-0.6,1.5-0.6,2.1
		c0,0.3,0.1,0.6,0.4,0.8C261.8,178.4,262.2,178.5,262.6,178.5z"/>
	<path fill="#616568" d="M377.8,38.5c1.4,0,1.9-1.2,1.9-3.1c0-1.9-0.5-3.1-1.9-3.1c-1.4,0-1.9,1.3-1.9,3.1
		C375.9,37.3,376.4,38.5,377.8,38.5z"/>
	<path opacity="0.67" fill="#616568" d="M351,49h84.1c1.2,0,2.5,0.3,3.6,0.8l11.4,5.7c1.3,0.7,2.9-0.3,2.9-1.8V24c0-2.2-1.8-4-4-4
		h-98c-2.2,0-4,1.8-4,4v21C347,47.2,348.8,49,351,49z M427.7,31.8h1.9h1.4h3.4h1.4h1.9l0,2.1h-1.5l-0.3-1.4h-1.5c0,0.9,0,1.8,0,2.8
		v0.3c0,0.9,0,1.8,0,2.7l1.3,0.1V39h-1.3H431h-1.3v-0.6l1.3-0.1c0-0.9,0-1.8,0-2.7v-0.4c0-0.9,0-1.8,0-2.8h-1.5l-0.3,1.4h-1.6
		L427.7,31.8z M423.4,31.6c1.4,0,2.3,0.2,3.2,0.5l0.1,1.7h-1.4l-0.5-1.5c-0.3-0.1-0.6-0.1-1-0.1c-1.6,0-3,0.9-3,3.2
		c0,2.3,1.4,3.1,3,3.1c0.4,0,0.8-0.1,1.2-0.2l0.5-1.5h1.4l-0.1,1.7c-0.8,0.3-2,0.6-3.5,0.6c-3.1,0-5.8-1.1-5.8-3.8
		C417.4,32.7,420.3,31.6,423.4,31.6z M407.8,38.4l1.1-0.1c0-0.9,0-1.8,0-2.7v-0.4c0-0.9,0-1.8,0-2.7l-1.1-0.1v-0.6h1.1h1.7h1.7h2.1
		h1.9l0.1,1.9h-1.6l-0.3-1.2h-2.3c0,0.8,0,1.6,0,2.5h1.5l0.2-0.8h1v2.3h-1l-0.2-0.8h-1.5c0,0.9,0,1.8,0,2.7h2.6l0.3-1.2h1.6
		l-0.1,1.9h-1.9h-2.5h-1.7h-1.7h-1.1V38.4z M395.7,38.4l1.4-0.1v-5.4l-0.3-0.3l-1.1-0.1v-0.7h1.4h2.8l4.4,4v-3.2l-1.9-0.1v-0.6h1.9
		h1.2h1.4v0.6l-1.4,0.1v4.3V39h-1.7l-5.5-5.1v4.3l1.9,0.1V39h-1.9h-1.2h-1.4V38.4z M383.7,38.4l1.4-0.1v-5.4l-0.3-0.3l-1.1-0.1v-0.7
		h1.4h2.8l4.4,4v-3.2l-1.9-0.1v-0.6h1.9h1.2h1.4v0.6l-1.4,0.1v4.3V39h-1.7l-5.5-5.1v4.3l1.9,0.1V39h-1.9h-1.2h-1.4V38.4z
		 M377.8,31.6c2.8,0,5.3,1.2,5.3,3.8c0,2.6-2.5,3.8-5.3,3.8c-2.8,0-5.3-1.2-5.3-3.8C372.5,32.8,375.1,31.6,377.8,31.6z M368.4,31.6
		c1.4,0,2.3,0.2,3.2,0.5l0.1,1.7h-1.4l-0.5-1.5c-0.3-0.1-0.6-0.1-1-0.1c-1.6,0-3,0.9-3,3.2c0,2.3,1.4,3.1,3,3.1
		c0.4,0,0.8-0.1,1.2-0.2l0.5-1.5h1.4l-0.1,1.7c-0.8,0.3-2,0.6-3.5,0.6c-3.1,0-5.8-1.1-5.8-3.8C362.4,32.7,365.3,31.6,368.4,31.6z"/>
	<g opacity="0.54">
		<path fill="#616568" d="M500,166.1c-1.1,0-1.7,1.3-1.7,4.1c0,2.9,0.6,4.1,1.7,4.1c1.1,0,1.7-1.2,1.7-4.1
			C501.7,167.3,501.1,166.1,500,166.1z"/>
		<path fill="#616568" d="M523.8,166.1c-1.1,0-1.7,1.3-1.7,4.1c0,2.9,0.6,4.1,1.7,4.1c1.1,0,1.7-1.2,1.7-4.1
			C525.5,167.3,524.9,166.1,523.8,166.1z"/>
		<path fill="#616568" d="M582,148H474c-2.2,0-4,1.8-4,4v36.8c0,1.5,1.6,2.5,2.9,1.8l11.4-5.7c1.1-0.6,2.3-0.8,3.6-0.8H582
			c2.2,0,4-1.8,4-4v-28C586,149.8,584.2,148,582,148z M494.5,166.7h-2.1v4.1c0,1,0,2,0,2.9l1.5,0.3v0.9h-1.5h-3.3h-1.1v-0.9l1.1-0.2
			c0-1,0-2,0-3v-4.1h-1.3v-1.2l1.3-0.2c0.2-2,0.9-3,1.7-3.7c1-1,2.2-1.3,3.3-1.3c1.1,0,2.1,0.4,2.4,1.4c0,0.8-0.5,1.3-1.4,1.3
			c-0.7,0-1.2-0.4-1.8-1.4l-0.2-0.2c-0.1,0.1-0.3,0.3-0.3,0.4c-0.5,0.8-0.6,1.9-0.6,3.5h2.1V166.7z M500,175.3
			c-3.1,0-5.1-2.1-5.1-5.2s2.2-5.1,5.1-5.1c2.9,0,5.1,2,5.1,5.1S503.1,175.3,500,175.3z M511.3,175h-1.1h-3.3h-1.1v-0.9l1.1-0.2
			c0-1,0-2,0-3v-8.4l-1.2-0.2v-0.8l4.2-0.9l0.3,0.2l-0.1,2.8v7.3c0,1,0,2,0,3.1l1.1,0.2V175z M518.1,175H517h-3.3h-1.1v-0.9l1.1-0.2
			c0-1,0-2,0-3v-8.4l-1.2-0.2v-0.8l4.2-0.9l0.3,0.2l-0.1,2.8v7.3c0,1,0,2,0,3.1l1.1,0.2V175z M523.8,175.3c-3.1,0-5.1-2.1-5.1-5.2
			s2.2-5.1,5.1-5.1c2.9,0,5.1,2,5.1,5.1S526.9,175.3,523.8,175.3z M544.9,166.2l-1.1,0.2l-3.1,8.6h-1.5c-1.2-3.2-1.9-5.1-2.3-6.4
			l-2.3,6.4h-1.5l-3.2-8.7l-0.9-0.1v-0.9h0.5h3.3h1.5v0.9l-1.2,0.2l1.6,5.1l1.7-5.1l-1.2-0.2v-0.9h1.5h1.9h1.4v0.9l-1.1,0.2l1.6,5
			l1.6-5l-1.1-0.2v-0.9h1.5h1.4h0.7V166.2z M561,175l-4.1,0.2l-0.1-1.7c-0.9,1.1-2,1.8-3.2,1.8c-1.7,0-2.9-1-2.8-3.6l0.1-4.9
			l-1.1-0.3v-0.8l4.1-0.6l0.3,0.2l-0.1,2.8v3.5c0,1.2,0.4,1.7,1.1,1.7c0.6,0,1.2-0.4,1.7-0.9l0.1-5.6l-1.1-0.3v-0.8l4-0.6l0.3,0.2
			l-0.1,2.8v5.7l1,0.2V175z M565.5,175.3c-1.3,0-2.4-0.3-3.5-0.9l0-2.5h1.6l0.3,2c0.5,0.2,0.9,0.3,1.5,0.3c1.2,0,1.8-0.4,1.8-1.2
			c0-0.6-0.4-1-1.7-1.4l-1.1-0.3c-1.5-0.5-2.4-1.5-2.4-3c0-1.8,1.5-3.3,4.2-3.3c1.2,0,2.1,0.3,3.2,0.8l-0.1,2.2h-1.6l-0.4-1.7
			c-0.3-0.1-0.6-0.2-1.1-0.2c-0.9,0-1.5,0.4-1.5,1.1c0,0.6,0.3,0.9,1.7,1.4l1,0.3c1.9,0.6,2.7,1.6,2.7,3.1
			C570,174.1,568.3,175.3,565.5,175.3z"/>
	</g>
	<g opacity="0.54">
		<polygon fill="#616568" points="238.5,49.9 237.2,54.5 239.9,54.5 238.6,49.9 		"/>
		<path fill="#616568" d="M299,34H183c-1.1,0-2,0.9-2,2v27.2c0,0.5-0.1,1.1-0.3,1.6L176,75.7c-0.4,0.8,0.5,1.7,1.3,1.3l10.9-4.7
			c0.5-0.2,1-0.3,1.6-0.3H299c1.1,0,2-0.9,2-2V36C301,34.9,300.1,34,299,34z M200,49.9h-2.8v-0.6c0-0.4-0.2-0.7-0.5-0.9
			c-0.3-0.3-0.7-0.4-1.2-0.4c-0.7,0-1.1,0.1-1.4,0.4c-0.2,0.3-0.3,0.6-0.3,1.1V56c0,0.4,0.1,0.7,0.4,0.9c0.2,0.3,0.7,0.4,1.3,0.4
			c0.2,0,0.4,0,0.6-0.1s0.4-0.1,0.6-0.2c0.2-0.1,0.3-0.2,0.4-0.4c0.1-0.2,0.2-0.4,0.2-0.6v-0.6h2.8v0.8c0,0.4-0.1,0.8-0.3,1.1
			c-0.2,0.4-0.5,0.7-0.9,0.9c-0.4,0.3-0.9,0.5-1.4,0.6c-0.5,0.2-1.1,0.2-1.7,0.2c-0.5,0-1.1,0-1.6-0.1c-0.5-0.1-1-0.3-1.5-0.5
			c-0.4-0.2-0.8-0.5-1.1-0.9c-0.3-0.4-0.4-0.9-0.4-1.5V49c0-0.4,0.1-0.8,0.3-1.2c0.2-0.4,0.5-0.7,0.9-0.9c0.4-0.3,0.9-0.5,1.4-0.6
			c0.5-0.2,1.2-0.2,1.8-0.2c0.6,0,1.2,0.1,1.8,0.2s1,0.4,1.4,0.6c0.4,0.3,0.7,0.6,0.9,1c0.2,0.4,0.3,0.8,0.3,1.2V49.9z M211.2,56
			c0,0.5-0.1,1-0.4,1.4c-0.3,0.4-0.6,0.7-1.1,1c-0.4,0.3-0.9,0.5-1.5,0.6s-1.1,0.2-1.7,0.2c-0.6,0-1.1-0.1-1.7-0.2
			c-0.5-0.1-1-0.3-1.5-0.6c-0.4-0.3-0.8-0.6-1.1-1c-0.3-0.4-0.4-0.8-0.4-1.4v-6.8c0-0.5,0.1-1,0.4-1.4c0.3-0.4,0.6-0.7,1.1-1
			c0.4-0.3,0.9-0.5,1.5-0.6c0.5-0.1,1.1-0.2,1.7-0.2c0.6,0,1.1,0.1,1.7,0.2c0.5,0.1,1,0.3,1.5,0.6c0.4,0.3,0.8,0.6,1.1,1
			c0.3,0.4,0.4,0.9,0.4,1.4V56z M223.1,59h-2.6l-4.2-7.7h-0.1V59h-2.8V46.2h2.6l4.2,7.7h0.1v-7.7h2.8V59z M230.6,59h-2.8V47.9h-3.2
			v-1.7h9.1v1.7h-3.2V59z M241.3,59l-0.8-2.8h-3.8l-0.8,2.8h-2.8l4.3-12.8h2.3L244,59H241.3z M254.2,49.9h-2.8v-0.6
			c0-0.4-0.2-0.7-0.5-0.9c-0.3-0.3-0.7-0.4-1.2-0.4c-0.7,0-1.1,0.1-1.4,0.4c-0.2,0.3-0.3,0.6-0.3,1.1V56c0,0.4,0.1,0.7,0.4,0.9
			c0.2,0.3,0.7,0.4,1.3,0.4c0.2,0,0.4,0,0.6-0.1s0.4-0.1,0.6-0.2c0.2-0.1,0.3-0.2,0.4-0.4c0.1-0.2,0.2-0.4,0.2-0.6v-0.6h2.8v0.8
			c0,0.4-0.1,0.8-0.3,1.1c-0.2,0.4-0.5,0.7-0.9,0.9c-0.4,0.3-0.9,0.5-1.4,0.6c-0.5,0.2-1.1,0.2-1.7,0.2c-0.5,0-1.1,0-1.6-0.1
			c-0.5-0.1-1-0.3-1.5-0.5c-0.4-0.2-0.8-0.5-1.1-0.9c-0.3-0.4-0.4-0.9-0.4-1.5V49c0-0.4,0.1-0.8,0.3-1.2c0.2-0.4,0.5-0.7,0.9-0.9
			c0.4-0.3,0.9-0.5,1.4-0.6c0.5-0.2,1.2-0.2,1.8-0.2c0.6,0,1.2,0.1,1.8,0.2s1,0.4,1.4,0.6c0.4,0.3,0.7,0.6,0.9,1
			c0.2,0.4,0.3,0.8,0.3,1.2V49.9z M264.7,47.9h-3.2V59h-2.8V47.9h-3.2v-1.7h9.1V47.9z M279.8,56.1c0,0.4-0.1,0.8-0.4,1.2
			c-0.2,0.4-0.6,0.7-1,0.9c-0.4,0.3-0.9,0.5-1.4,0.6c-0.5,0.2-1.1,0.2-1.7,0.2c-0.6,0-1.2-0.1-1.7-0.2s-1-0.4-1.4-0.6
			c-0.4-0.3-0.7-0.6-1-0.9c-0.2-0.4-0.4-0.8-0.4-1.2v-9.9h2.8v9.8c0,0.5,0.2,0.8,0.5,1s0.7,0.3,1.2,0.3s0.9-0.1,1.2-0.3
			s0.5-0.6,0.5-1v-9.8h2.8V56.1z M291.3,49.9h-2.8v-0.4c0-0.4-0.1-0.8-0.4-1.1c-0.3-0.3-0.8-0.5-1.5-0.5c-0.4,0-0.7,0-0.9,0.1
			c-0.2,0.1-0.4,0.2-0.6,0.4c-0.1,0.2-0.2,0.3-0.3,0.5c-0.1,0.2-0.1,0.4-0.1,0.6c0,0.3,0,0.5,0,0.6s0.1,0.3,0.2,0.5
			c0.1,0.1,0.3,0.2,0.5,0.3s0.5,0.2,0.9,0.3l2.1,0.6c0.6,0.2,1.1,0.3,1.5,0.5c0.4,0.2,0.7,0.5,0.9,0.7c0.2,0.3,0.3,0.6,0.4,1
			c0.1,0.4,0.1,0.8,0.1,1.2c0,0.5-0.1,1-0.2,1.5c-0.2,0.5-0.4,0.9-0.8,1.2s-0.9,0.6-1.5,0.8c-0.6,0.2-1.4,0.3-2.2,0.3
			c-0.7,0-1.3-0.1-1.9-0.2s-1.1-0.4-1.5-0.6c-0.4-0.3-0.7-0.6-1-1c-0.2-0.4-0.4-0.8-0.4-1.2v-0.7h2.8V56c0,0.3,0.1,0.6,0.4,0.9
			c0.3,0.3,0.8,0.4,1.5,0.4c0.5,0,0.8,0,1.1-0.1c0.3-0.1,0.5-0.2,0.6-0.4c0.1-0.2,0.2-0.4,0.3-0.6c0-0.2,0.1-0.5,0.1-0.8
			c0-0.3,0-0.6-0.1-0.8c0-0.2-0.1-0.4-0.2-0.5c-0.1-0.1-0.3-0.2-0.5-0.3s-0.5-0.2-0.8-0.3l-2-0.5c-1.2-0.3-2-0.8-2.4-1.3
			c-0.4-0.5-0.6-1.2-0.6-2c0-0.5,0.1-0.9,0.3-1.4c0.2-0.4,0.5-0.8,0.9-1.1c0.4-0.3,0.9-0.6,1.5-0.7c0.6-0.2,1.3-0.3,2.1-0.3
			c0.7,0,1.3,0.1,1.9,0.3c0.6,0.2,1.1,0.4,1.5,0.7c0.4,0.3,0.7,0.6,0.9,0.9c0.2,0.3,0.3,0.7,0.3,1.1V49.9z"/>
		<path fill="#616568" d="M207.9,48.2c-0.4-0.2-0.8-0.3-1.3-0.3s-0.9,0.1-1.3,0.3c-0.4,0.2-0.6,0.5-0.6,1V56c0,0.4,0.2,0.8,0.6,1
			s0.8,0.3,1.3,0.3s0.9-0.1,1.3-0.3s0.6-0.5,0.6-1v-6.8C208.5,48.8,208.3,48.4,207.9,48.2z"/>
	</g>
	<g opacity="0.72">
		<path fill="#616568" d="M129,308.4c-0.5,0-0.9,0.1-1.1,0.3s-0.4,0.5-0.4,0.9v4.2c0,0.4,0.1,0.7,0.4,0.9s0.7,0.3,1.1,0.3
			s0.9-0.1,1.2-0.3c0.3-0.2,0.4-0.5,0.4-0.9v-4.2c0-0.4-0.1-0.7-0.4-0.9C129.9,308.5,129.5,308.4,129,308.4z"/>
		<path fill="#616568" d="M175.7,292.2H101c-2.2,0-4,1.8-4,4v30c0,2.2,1.8,4,4,4h62c2.2,0,4-1.8,4-4v-23.9c0-1.3,0.7-2.6,1.8-3.3
			l7.5-5C177.1,293.5,176.7,292.2,175.7,292.2z M122.2,313.6c0,0.8,0,1.3-0.1,1.7c-0.1,0.4-0.2,0.7-0.4,0.9
			c-0.3,0.3-0.6,0.5-1.1,0.7s-1,0.3-1.8,0.3c-0.6,0-1.2-0.1-1.7-0.3c-0.5-0.2-0.9-0.5-1.3-0.8h-0.1v5.3h-3.2v-15h3.2v1
			c0.4-0.3,0.8-0.6,1.2-0.8c0.4-0.2,1-0.3,1.8-0.3c1.3,0,2.3,0.3,2.8,1c0.2,0.2,0.3,0.5,0.4,0.9c0.1,0.3,0.1,0.8,0.1,1.4V313.6z
			 M133.8,313.4c0,0.4,0,0.8-0.1,1.2c-0.1,0.4-0.2,0.7-0.5,1c-0.4,0.5-0.9,0.8-1.6,1.1s-1.6,0.4-2.6,0.4s-1.8-0.1-2.6-0.4
			c-0.7-0.3-1.3-0.7-1.6-1.1c-0.2-0.3-0.4-0.6-0.5-1c-0.1-0.4-0.1-0.8-0.1-1.2v-3.5c0-0.4,0-0.8,0.1-1.2c0.1-0.4,0.2-0.7,0.5-1
			c0.4-0.5,0.9-0.8,1.6-1.1c0.7-0.3,1.6-0.4,2.6-0.4s1.8,0.1,2.6,0.4c0.7,0.3,1.3,0.7,1.6,1.1c0.2,0.3,0.4,0.6,0.5,1
			c0.1,0.4,0.1,0.8,0.1,1.2V313.4z M144.8,315.2c-0.2,0.4-0.6,0.7-1,1c-0.4,0.3-0.9,0.5-1.5,0.7c-0.6,0.2-1.2,0.3-1.9,0.3
			c-0.6,0-1.2-0.1-1.8-0.2c-0.6-0.1-1.1-0.3-1.5-0.6c-0.4-0.3-0.8-0.6-1.1-1c-0.3-0.4-0.4-0.9-0.4-1.4h3c0.1,0.3,0.2,0.6,0.5,0.8
			s0.7,0.4,1.3,0.4c0.5,0,0.9-0.1,1.2-0.3c0.4-0.2,0.6-0.5,0.6-0.9c0-0.3-0.1-0.5-0.3-0.8c-0.2-0.2-0.7-0.4-1.3-0.5l-1.5-0.4
			c-1-0.3-1.8-0.6-2.4-1.1c-0.6-0.5-0.9-1.1-0.9-1.8c0-0.4,0.1-0.9,0.4-1.2c0.3-0.4,0.6-0.7,1-1c0.4-0.3,0.9-0.5,1.5-0.6
			c0.6-0.2,1.2-0.2,1.8-0.2c0.7,0,1.3,0.1,1.8,0.2c0.6,0.2,1,0.4,1.4,0.7c0.4,0.3,0.7,0.6,0.9,1c0.2,0.4,0.3,0.8,0.3,1.2h-3
			c0-0.4-0.2-0.6-0.5-0.8c-0.3-0.2-0.7-0.3-1.1-0.3c-0.5,0-0.9,0.1-1.2,0.3c-0.3,0.2-0.4,0.5-0.4,0.7c0,0.2,0.1,0.4,0.2,0.6
			c0.1,0.2,0.5,0.4,1.1,0.5l1.9,0.5c1.2,0.3,2,0.7,2.5,1.3c0.5,0.5,0.7,1.1,0.7,1.7C145.1,314.4,145,314.8,144.8,315.2z M152.9,308
			h-2v5.9c0,0.3,0,0.4,0.1,0.6c0.1,0.1,0.2,0.2,0.3,0.3c0.2,0.1,0.4,0.1,0.6,0.1s0.6,0,0.9,0v2h-1.3c-0.7,0-1.3-0.1-1.8-0.2
			s-0.9-0.3-1.2-0.6c-0.3-0.2-0.5-0.5-0.6-0.8s-0.2-0.6-0.2-0.9V308h-1.6v-1.7h1.6v-3.2h3.2v3.2h2V308z"/>
		<path fill="#616568" d="M117.4,308.4c-0.5,0-0.9,0.1-1.2,0.4c-0.3,0.2-0.4,0.6-0.4,1v4.1c0,0.3,0.2,0.6,0.5,0.8
			c0.3,0.2,0.7,0.3,1.1,0.3c0.6,0,1-0.1,1.2-0.4s0.3-0.5,0.3-0.9v-3.9c0-0.4-0.1-0.8-0.4-1.1C118.3,308.5,117.9,308.4,117.4,308.4z"
			/>
	</g>
	<g opacity="0.72">
		<path fill="#616568" d="M573.4,244.9c0,0.3,0.1,0.5,0.3,0.7s0.5,0.3,1,0.3c0.3,0,0.7-0.1,0.9-0.2c0.3-0.1,0.5-0.4,0.5-0.8l0.1-1.7
			c-1,0.2-1.7,0.4-2.2,0.6C573.7,244,573.4,244.4,573.4,244.9z"/>
		<path fill="#616568" d="M605,224.2l-72-0.2c-1.1,0-2,0.9-2,2v9.3c0,0.5-0.2,1-0.6,1.4l-4,4c-0.8,0.8-0.8,2,0,2.8l4,4
			c0.4,0.4,0.6,0.9,0.6,1.4v9c0,1.1,0.9,2,2,2h72c1.1,0,2-0.9,2-2v-31.8C607,225.1,606.1,224.2,605,224.2z M549.9,246.4
			c-1,0.5-2.2,0.8-3.7,0.8c-1.1,0-1.9-0.1-2.3-0.2c-0.5-0.2-1.2-0.2-2-0.2c-0.1-0.3-0.1-0.7-0.2-1.2s-0.2-0.9-0.2-1.1
			c0,0,0-0.1,0.2-0.1s0.3,0,0.3,0c0.1,0,0.2,0,0.4,0c0.1,0,0.2,0.1,0.2,0.1c0.4,0.6,0.9,1.1,1.5,1.5c0.6,0.4,1.3,0.6,2,0.6
			c0.5,0,0.9-0.1,1.1-0.3s0.4-0.4,0.4-0.7c0-0.4-0.3-0.7-1-0.9c-0.6-0.2-1.3-0.4-2-0.6c-0.7-0.2-1.4-0.5-2-0.8
			c-0.6-0.4-0.9-0.8-0.9-1.4c0-0.7,0.5-1.3,1.6-1.8c1.1-0.5,2.2-0.7,3.5-0.7c0.8,0,1.5,0.1,2.1,0.2c0.6,0.1,1.2,0.2,1.7,0.2
			c0,0.2,0,0.6,0.1,1s0.1,0.8,0.1,1.1c0,0-0.1,0.1-0.2,0.1s-0.3,0-0.3,0c-0.1,0-0.2,0-0.4,0s-0.2-0.1-0.2-0.1
			c-0.2-0.5-0.5-0.9-1-1.2c-0.5-0.3-1-0.5-1.6-0.5c-0.5,0-0.9,0.1-1.2,0.2c-0.3,0.1-0.4,0.4-0.4,0.6c0,0.4,0.3,0.7,1,0.9
			c0.7,0.2,1.3,0.4,2,0.6c0.7,0.2,1.4,0.5,2,0.8c0.6,0.3,1,0.8,1,1.4C551.4,245.2,550.9,245.8,549.9,246.4z M568.4,246.8
			c0,0.1-0.1,0.1-0.1,0.1c-0.5,0-1.1,0-1.8-0.1c-0.7,0-1.3-0.1-1.9-0.1c-0.6,0-1.1,0-1.7,0.1c-0.6,0-1.1,0.1-1.6,0.1
			c-0.1,0-0.1,0-0.1-0.1c0-0.1-0.1-0.2-0.1-0.2c0-0.1,0-0.1,0.1-0.2c0-0.1,0.1-0.1,0.1-0.1c0.3,0,0.6-0.1,0.8-0.3
			c0.2-0.2,0.3-0.6,0.3-1.1V242c0-0.6-0.1-1-0.3-1.2c-0.2-0.2-0.6-0.4-1.2-0.4c-0.5,0-0.9,0.1-1.2,0.3c-0.3,0.2-0.6,0.6-0.9,1.1v2.9
			c0,0.5,0.1,0.9,0.2,1.1c0.2,0.2,0.4,0.3,0.8,0.4c0.1,0,0.1,0,0.1,0.1c0,0.1,0.1,0.2,0.1,0.2c0,0.1,0,0.2-0.1,0.2
			c0,0.1-0.1,0.1-0.1,0.1c-0.5,0-1.1,0-1.6-0.1c-0.5,0-1.1-0.1-1.7-0.1c-0.6,0-1.2,0-1.9,0.1c-0.7,0-1.3,0.1-1.8,0.1
			c-0.1,0-0.1,0-0.1-0.1c0-0.1-0.1-0.2-0.1-0.2c0-0.1,0-0.2,0.1-0.2c0-0.1,0.1-0.1,0.1-0.1c0.7-0.1,1.2-0.2,1.4-0.4
			c0.2-0.2,0.3-0.5,0.3-1.1v-2.7c0-0.5-0.1-0.8-0.2-0.9c-0.2-0.1-0.5-0.2-1.2-0.3c-0.1,0-0.1,0-0.1-0.1c0-0.1-0.1-0.2-0.1-0.2
			s0-0.1,0.1-0.2c0-0.1,0.1-0.1,0.1-0.1c0.6-0.1,1.4-0.3,2.4-0.5c1-0.3,1.8-0.5,2.2-0.6c0.1,0,0.1-0.1,0.3-0.1c0.1,0,0.2,0,0.3,0
			c0.2,0,0.4,0,0.4,0.1s0.1,0.1,0.1,0.1l-0.1,1.6c0.3-0.6,0.9-1,1.6-1.3c0.7-0.3,1.5-0.4,2.3-0.4c1.3,0,2.3,0.3,3,0.8
			s1.1,1.1,1.1,1.8v3.1c0,0.5,0.1,0.9,0.3,1.1c0.2,0.2,0.7,0.3,1.4,0.3c0.1,0,0.1,0,0.1,0.1c0,0.1,0.1,0.2,0.1,0.2
			C568.4,246.6,568.4,246.7,568.4,246.8z M578.8,247.1c-0.7,0-1.3-0.1-1.7-0.3c-0.4-0.2-0.7-0.5-0.9-0.8c-0.4,0.4-0.9,0.7-1.5,0.9
			c-0.6,0.2-1.3,0.3-2.2,0.3c-1,0-1.8-0.1-2.5-0.4c-0.7-0.3-1-0.7-1-1.3c0-0.7,0.6-1.2,1.7-1.6c1.1-0.4,3-0.8,5.6-1.2l0.1-1.7
			c0-0.4-0.1-0.6-0.2-0.7c-0.2-0.1-0.4-0.2-0.8-0.2c-0.4,0-0.7,0-1,0.1c-0.3,0.1-0.5,0.3-0.5,0.6c-0.1,0.7-0.3,1.2-0.7,1.5
			c-0.4,0.3-0.9,0.4-1.6,0.4c-0.6,0-1.1-0.1-1.4-0.4c-0.3-0.2-0.5-0.5-0.5-0.9c0-0.6,0.7-1.1,2.1-1.6c1.4-0.5,2.9-0.7,4.7-0.7
			c1.6,0,2.6,0.3,3.2,0.8c0.6,0.5,0.8,1.2,0.8,2.1l-0.1,3c0,0.4,0.1,0.7,0.3,0.8s0.4,0.2,0.6,0.2c0.2,0,0.3,0,0.4-0.1
			c0.1,0,0.3-0.1,0.4-0.1c0.1,0,0.2,0,0.3,0.1s0.2,0.2,0.2,0.3c0,0,0,0.1,0,0.1s0,0-0.1,0.1c-0.3,0.2-0.8,0.5-1.5,0.6
			S579.6,247.1,578.8,247.1z M595.5,245.9c-1.1,0.8-2.7,1.3-4.7,1.3c-0.5,0-1,0-1.4-0.1s-0.7-0.2-1-0.3v2.3c0,0.5,0.1,0.9,0.4,1.1
			c0.3,0.2,0.8,0.3,1.5,0.3c0.1,0,0.1,0,0.1,0.1c0,0.1,0.1,0.2,0.1,0.2c0,0.1,0,0.1-0.1,0.2c0,0.1-0.1,0.1-0.1,0.1c-0.5,0-1.2,0-2,0
			s-1.5,0-2.1,0s-1.3,0-2,0s-1.4,0-1.9,0c-0.1,0-0.1,0-0.1-0.1c0-0.1-0.1-0.2-0.1-0.2c0-0.1,0-0.1,0.1-0.2c0-0.1,0.1-0.1,0.1-0.2
			c0.7-0.1,1.2-0.2,1.4-0.3c0.2-0.2,0.3-0.5,0.3-1.1v-7.1c0-0.4-0.1-0.7-0.2-0.9c-0.2-0.1-0.5-0.2-1.2-0.3c-0.1,0-0.1-0.1-0.1-0.1
			c0-0.1-0.1-0.2-0.1-0.2s0-0.1,0.1-0.2c0-0.1,0.1-0.1,0.1-0.1c0.6-0.1,1.4-0.3,2.4-0.5c1-0.3,1.8-0.5,2.2-0.6
			c0.1,0,0.1-0.1,0.3-0.1c0.1,0,0.2,0,0.3,0c0.2,0,0.4,0,0.4,0.1s0.1,0.1,0.1,0.1l-0.1,1.3c0.3-0.4,0.7-0.7,1.4-1s1.4-0.4,2.4-0.4
			c1.6,0,2.9,0.4,3.8,1.1c0.9,0.7,1.4,1.6,1.4,2.7C597.3,244,596.7,245,595.5,245.9z"/>
		<path fill="#616568" d="M590.5,240.4c-0.5,0-0.9,0.1-1.2,0.2c-0.3,0.1-0.6,0.4-0.9,0.9v3.6c0,0.4,0.2,0.7,0.5,0.9
			c0.3,0.2,0.8,0.3,1.4,0.3c0.6,0,1-0.1,1.3-0.3c0.3-0.2,0.6-0.4,0.7-0.7c0.1-0.3,0.2-0.6,0.3-1c0-0.4,0.1-0.9,0.1-1.4
			c0-0.9-0.2-1.6-0.6-2C591.7,240.6,591.2,240.4,590.5,240.4z"/>
	</g>
	<g opacity="0.54">
		<path fill="#616568" d="M79.9,222.9h-1.6v11.4h1.6c0.9,0,1.6-0.2,2-0.5c0.4-0.3,0.6-0.8,0.6-1.5v-7.5c0-0.6-0.2-1.1-0.6-1.4
			C81.6,223,80.9,222.9,79.9,222.9z"/>
		<path fill="#616568" d="M107.6,226.6l-3.4-3.4c-0.8-0.8-1.2-1.8-1.2-2.8v-10.2c0-1.1-0.9-2-2-2H21c-1.1,0-2,0.9-2,2V246
			c0,1.1,0.9,2,2,2l80,0.2c1.1,0,2-0.9,2-2v-10.5c0-1.1,0.4-2.1,1.2-2.8l3.4-3.4C108.4,228.6,108.4,227.4,107.6,226.6z M48.1,222.9
			h-6.7v4.8h5.8v2.1h-5.8v6.7h-3.4v-15.7h10V222.9z M60.4,222.9h-6.7v4.6h5.8v2.1h-5.8v4.6h6.7v2.2h-10v-15.7h10V222.9z M72.7,222.9
			h-6.7v4.6h5.8v2.1h-5.8v4.6h6.7v2.2h-10v-15.7h10V222.9z M85.9,232.1c0,1.5-0.5,2.5-1.6,3.2c-1.1,0.7-2.6,1-4.6,1H75v-15.7h5
			c1.9,0,3.4,0.4,4.4,1.1c1,0.7,1.5,1.7,1.5,3V232.1z"/>
	</g>
	<g opacity="0.72">
		<path fill="#616568" d="M85.4,93c0.4-0.5,0.5-1.1,0.5-1.9c0-0.1,0-0.2,0-0.3c0-0.1,0-0.2,0-0.2l-0.3-2.1c-0.6,0.7-1.9,2-3.9,3.9
			c0.6,0.1,1,0.3,1.2,0.5s0.5,0.6,0.9,1.2C84.5,93.8,85,93.5,85.4,93z"/>
		<path fill="#616568" d="M74.7,88.7c0.5-0.6,1.3-1.5,2.2-2.8c0.9-1.2,1.7-2.2,2.2-3c0.5-0.8,0.9-1.5,1.2-2s0.4-0.9,0.4-1.1
			c0-0.1,0-0.2-0.1-0.2c-0.2,0-0.7,0.4-1.3,1.1c-0.7,0.7-1.5,1.7-2.3,2.9c-1.2,1.7-2.1,3-2.6,3.8s-1,1.8-1.3,2.8
			C73.7,89.8,74.2,89.3,74.7,88.7z"/>
		<path fill="#616568" d="M118.1,88.7c0.5-0.6,1.3-1.5,2.2-2.8c0.9-1.2,1.7-2.2,2.2-3c0.5-0.8,0.9-1.5,1.2-2s0.4-0.9,0.4-1.1
			c0-0.1,0-0.2-0.1-0.2c-0.2,0-0.7,0.4-1.3,1.1c-0.7,0.7-1.5,1.7-2.3,2.9c-1.2,1.7-2.1,3-2.6,3.8s-1,1.8-1.3,2.8
			C117.1,89.8,117.6,89.3,118.1,88.7z"/>
		<path fill="#616568" d="M54.7,93c0.4-0.5,0.5-1.1,0.5-1.9c0-0.1,0-0.2,0-0.3c0-0.1,0-0.2,0-0.2l-0.3-2.1c-0.6,0.7-1.9,2-3.9,3.9
			c0.6,0.1,1,0.3,1.2,0.5s0.5,0.6,0.9,1.2C53.8,93.8,54.3,93.5,54.7,93z"/>
		<path fill="#616568" d="M146,71H34c-1.1,0-2,0.9-2,2v32c0,1.1,0.9,2,2,2h96.9c0.7,0,1.5,0.2,2.1,0.6l12,7.5
			c1.3,0.8,3.1-0.1,3.1-1.7V73C148,71.9,147.1,71,146,71z M113,83.4c0.4-0.5,0.8-0.8,1.3-0.8c0.3,0,0.5,0.1,0.7,0.3
			c0.2,0.2,0.3,0.4,0.3,0.8c0,0.4-0.2,0.9-0.6,1.4s-0.8,0.8-1.3,0.8c-0.2,0-0.5-0.1-0.7-0.3c-0.2-0.2-0.3-0.4-0.3-0.7
			C112.4,84.4,112.6,83.9,113,83.4z M132.7,93.3c-1.1,1.3-2.1,2.3-3.1,3.1c-1,0.7-1.9,1.1-2.9,1.1c-0.9,0-1.6-0.3-2.1-1
			s-0.8-1.6-0.8-2.8c0,0,0-0.1,0-0.1c-0.9,0.6-1.7,0.8-2.2,0.8c-0.3,0-0.7-0.1-1-0.2c-0.9,1.1-1.6,1.9-2.3,2.4
			c-0.6,0.5-1.3,0.8-1.9,0.8c-0.7,0-1.3-0.4-1.7-1.2c-0.4-0.7-0.5-1.5-0.6-2.5c-0.9,1.1-1.7,1.9-2.5,2.5c-0.8,0.6-1.5,0.9-2.1,0.9
			c-0.8,0-1.4-0.4-1.8-1.3c-0.3-0.7-0.5-1.5-0.6-2.4c-0.7,0.8-1.4,1.4-1.8,1.8c-0.5,0.5-1,0.9-1.5,1.2c-0.4,0.3-0.8,0.4-1.2,0.4
			c-0.4,0-0.8-0.2-1-0.6c-0.3-0.4-0.4-0.9-0.4-1.6c0-0.4,0.1-0.9,0.3-1.4s0.5-1.1,0.9-1.8c0.4-0.6,0.9-1.3,1.4-1.9
			c-0.3,0.1-0.6,0.1-0.9,0.2c-0.3,0.1-0.7,0.1-1.1,0.2s-0.7,0.1-0.9,0.2c-0.6,1.2-1.5,2.3-2.6,3.3v0c-1,1-1.8,1.7-2.4,2.3
			c-0.7,0.6-1.3,1-1.8,1.3c-0.6,0.3-1.1,0.5-1.7,0.5c-0.5,0-1-0.2-1.5-0.6c-0.4-0.4-0.8-1-1.1-1.7c-0.2-0.5-0.3-1.1-0.3-1.7
			c-1.2,1.1-2.2,2-3.1,2.5c-1,0.6-1.8,0.9-2.5,0.9c-0.9,0-1.8-0.4-2.5-1.2c-0.5-0.5-0.7-0.9-0.9-1.3c-0.1-0.3-0.1-0.7-0.1-1.1
			c-0.9,0.6-1.7,0.9-2.2,0.9c-0.3,0-0.7-0.1-1-0.2c-0.9,1.1-1.6,1.9-2.3,2.4c-0.6,0.5-1.3,0.8-1.9,0.8c-0.7,0-1.3-0.4-1.7-1.2
			c-0.4-0.8-0.6-1.7-0.6-2.9c0,0,0,0,0,0c-1.1,1-2,1.8-2.5,2.3c-0.5,0.5-1,0.8-1.4,1.1s-0.8,0.4-1.1,0.4c-0.8,0-1.2-0.5-1.2-1.5
			c0-0.4,0.1-0.9,0.4-1.5c0.2-0.6,0.6-1.5,1.2-2.7c-1.4,1.9-2.5,3.2-3.2,4c-0.7,0.8-1.3,1.2-1.8,1.2c-0.4,0-0.7-0.2-1-0.5
			c-0.3-0.3-0.6-0.7-0.7-1.2C59,94.5,59,94,58.9,93.6c-1.2,1.1-2.2,2-3.1,2.5c-1,0.6-1.8,0.9-2.5,0.9c-0.9,0-1.8-0.4-2.5-1.2
			c-0.5-0.5-0.7-0.9-0.9-1.3s-0.2-1-0.2-1.7v-0.4c2.5-2.7,4.3-4.5,5.2-5.6c0.2-1.2,0.7-1.8,1.6-1.8c0.2,0,0.4,0.1,0.7,0.2l0.1,0.3
			c0,0.1-0.1,0.3-0.1,0.5c0,0.2,0.1,0.5,0.2,1c0.1,0.5,0.3,0.9,0.3,1.3s0.1,0.7,0.1,1.2c0,0.6-0.1,1.3-0.4,1.9
			c-0.3,0.6-0.7,1.2-1.3,1.7c-0.6,0.5-1.3,1.1-2.2,1.7c0.4,0.1,0.6,0.1,0.8,0.1c0.4,0,0.8-0.1,1.3-0.3c0.5-0.2,0.9-0.5,1.4-0.8
			c0.4-0.3,0.9-0.7,1.5-1.1c0-0.1,0-0.3,0.1-0.4c0.1-0.3,0.2-0.7,0.4-1c0.2-0.4,0.5-0.8,0.8-1.2c0.3-0.4,0.8-0.9,1.2-1.5
			c0.3-0.3,0.5-0.6,0.7-0.9c0.2-0.2,0.4-0.4,0.6-0.5c0.2-0.1,0.5-0.1,0.9-0.1c0.3,0,0.6,0,0.9,0.1c0.3,0.1,0.4,0.2,0.4,0.3
			c0,0.2-0.1,0.5-0.4,1c-0.3,0.5-0.8,1-1.4,1.7c-0.6,0.7-1.4,1.3-2.2,1.9c-0.2,0.6-0.3,1-0.3,1.3c0,0.4,0.2,0.6,0.5,0.6
			c0.1,0,0.3-0.1,0.6-0.3c0.3-0.2,0.7-0.6,1.4-1.2c0.6-0.6,1.2-1.1,1.8-1.5c0.4-0.3,0.8-0.8,1.3-1.5c0.5-0.7,0.9-1.2,1.2-1.5
			c0.7-0.8,1.2-1.3,1.5-1.5c0.3-0.2,0.5-0.3,0.8-0.3c0.2,0,0.4,0.1,0.5,0.2s0.1,0.4,0.1,0.9c0,0.2,0,0.4-0.1,0.5s-0.1,0.3-0.2,0.5
			c-0.1,0.2-0.4,0.6-0.7,1.1s-0.8,1.2-1.3,1.9c-0.3,0.4-0.5,0.8-0.7,1.3c-0.2,0.5-0.3,0.8-0.3,1c0,0.5,0.2,0.8,0.6,0.8
			c0.3,0,0.7-0.1,1.2-0.4s1.1-0.8,2-1.5V93c0.1-1.5,0.5-3,1.4-4.7c0.9-1.8,2.1-3.5,3.4-5.1c1.3-1.6,2.6-2.9,3.8-4s2.1-1.6,2.5-1.6
			c0.4,0,0.6,0.3,0.6,0.9c0,2.6-3.3,7-9.8,13.4c0,0.2,0,0.5,0,1c0,1.3,0.4,2,1.1,2c0.3,0,0.6-0.1,0.9-0.3c0.3-0.2,0.7-0.7,1.3-1.3
			c-0.2-0.5-0.4-0.9-0.4-1.2c0-0.5,0.2-1.1,0.7-1.7s0.9-1.2,1.5-1.6c0.6-0.5,1-0.7,1.2-0.7c0.4,0,0.6,0.3,0.6,0.9
			c0,0.4-0.1,1-0.3,1.6c-0.2,0.6-0.6,1.3-1,2.1c0.2,0.1,0.3,0.2,0.4,0.3C78.7,93,78.8,93,79,93c0.4,0,0.9-0.2,1.4-0.5v-0.1
			c2.5-2.7,4.3-4.5,5.2-5.6c0.2-1.2,0.7-1.8,1.6-1.8c0.2,0,0.4,0.1,0.7,0.2l0.1,0.3c0,0.1-0.1,0.3-0.1,0.5c0,0.2,0.1,0.5,0.2,1
			c0.1,0.5,0.3,0.9,0.3,1.3s0.1,0.7,0.1,1.2c0,0.6-0.1,1.3-0.4,1.9c-0.3,0.6-0.7,1.2-1.3,1.7c-0.6,0.5-1.3,1.1-2.2,1.7
			c0.4,0.1,0.6,0.1,0.8,0.1c0.4,0,0.8-0.1,1.3-0.3c0.5-0.2,0.9-0.5,1.4-0.8c0.4-0.3,0.9-0.7,1.5-1.1c0.1-0.4,0.2-0.9,0.4-1.2
			c0.3-0.5,0.9-1.2,1.7-2c1-1,1.9-1.7,2.8-2.3c0.9-0.5,1.5-0.8,2-0.8c0.4,0,0.6,0.1,0.9,0.4s0.4,0.6,0.4,0.9c0,0.3-0.2,0.8-0.5,1.3
			s-0.7,1.1-1.1,1.5c-0.4,0.4-0.7,0.6-1,0.6c-0.3,0-0.4-0.1-0.4-0.4c0-0.1,0-0.2,0-0.2c0-0.1,0-0.1,0-0.2c0-0.1,0-0.2-0.1-0.2
			c-0.1,0-0.2,0-0.3,0.1c-1,0.7-1.6,1.2-2,1.4c-0.4,0.3-0.6,0.6-0.9,0.8c-0.2,0.3-0.3,0.6-0.3,0.9c0,0.6,0.2,1,0.6,1.4
			s0.9,0.5,1.5,0.5c0.6,0,1.4-0.2,2.2-0.7c0.9-0.5,1.9-1.2,3.1-2.1v0c0.5-0.6,0.8-1,1.1-1.5c-0.3-0.1-0.5-0.2-0.7-0.4
			s-0.2-0.4-0.2-0.7c0-0.4,0.1-0.8,0.4-1.3s0.7-1,1.1-1.5s0.8-0.8,1.2-0.9c0.1-0.1,0.3-0.1,0.4-0.1c0.2,0,0.3,0.1,0.3,0.3
			c0,0.2-0.2,0.5-0.5,1c2-0.3,3.3-0.5,3.8-0.5c0.2,0,0.3,0,0.4,0.1c0.2,0.1,0.3,0.3,0.4,0.6s0.2,0.6,0.2,1c0,0.2-0.1,0.4-0.3,0.7
			c-0.2,0.2-0.5,0.6-0.9,1c-0.5,0.6-1,1.2-1.3,1.8s-0.5,1.1-0.5,1.5c0,0.5,0.3,0.7,0.8,0.7c0.6,0,1.6-0.6,3-1.7c0-0.1,0-0.3,0.1-0.4
			c0.1-0.3,0.2-0.6,0.3-0.9s0.3-0.6,0.6-1.1c1.4-2.2,2.7-3.2,3.8-3.2c0.6,0,0.9,0.2,0.9,0.7c0,0.3-0.2,0.8-0.6,1.5s-0.7,1.1-1,1.4
			c-0.8,0.8-1.4,1.4-1.7,1.7s-0.4,0.7-0.4,1.1c0,0.4,0.1,0.6,0.4,0.9s0.6,0.4,1,0.4c0.5,0,1-0.2,1.5-0.5c0.5-0.3,1.2-0.8,2-1.5
			c0.1-1.3,0.6-2.7,1.3-4.2c0.9-1.8,2.1-3.5,3.4-5.1c1.3-1.6,2.6-2.9,3.8-4s2.1-1.6,2.5-1.6c0.4,0,0.6,0.3,0.6,0.9
			c0,2.6-3.3,7-9.8,13.4c0,0.2,0,0.5,0,1c0,1.3,0.4,2,1.1,2c0.3,0,0.6-0.1,0.9-0.3c0.3-0.2,0.7-0.7,1.3-1.3
			c-0.2-0.5-0.4-0.9-0.4-1.2c0-0.5,0.2-1.1,0.7-1.7s0.9-1.2,1.5-1.6c0.6-0.5,1-0.7,1.2-0.7c0.4,0,0.6,0.3,0.6,0.9
			c0,0.4-0.1,1-0.3,1.6c-0.2,0.6-0.6,1.3-1,2.1c0.2,0.1,0.3,0.2,0.4,0.3c0.1,0.1,0.2,0.1,0.4,0.1c0.4,0,0.9-0.2,1.5-0.5
			c0.1-0.6,0.3-1.1,0.6-1.6c0.5-0.8,1.3-1.7,2.3-2.6c0.7-0.6,1.5-1.1,2.2-1.4s1.4-0.5,2-0.5c0.5,0,0.8,0.1,1.1,0.3
			c0.3,0.2,0.4,0.5,0.4,0.9c0,0.6-0.2,1.2-0.7,1.8c-0.5,0.6-1.2,1.2-2.1,1.8c-0.9,0.6-2.1,1.2-3.5,1.7v0.4c0,0.6,0.1,1,0.4,1.3
			s0.7,0.5,1.1,0.5c0.5,0,1-0.1,1.5-0.3c0.5-0.2,1-0.5,1.5-0.9s1.1-0.9,1.9-1.5V93.3z"/>
		<path fill="#616568" d="M130.1,89.2c0.3-0.5,0.4-0.8,0.4-1c0-0.2-0.1-0.3-0.3-0.3c-0.2,0-0.5,0.1-0.9,0.3
			c-0.4,0.2-0.8,0.5-1.2,0.9s-0.8,0.8-1.1,1.3s-0.5,1-0.6,1.6c0.9-0.3,1.6-0.8,2.3-1.3S129.8,89.7,130.1,89.2z"/>
	</g>
	<path fill="#616568" d="M315.6,228.1l-14.7,8.8c-1.2,0.7-2.7,1.1-4.1,1.1H269c-2.2,0-4,1.8-4,4v34c0,2.2,1.8,4,4,4h34
		c2.2,0,4-1.8,4-4v-27.8c0-1.4,0.4-2.9,1.1-4.1l8.8-14.7C317.5,228.5,316.5,227.5,315.6,228.1z M286,271c-6.6,0-12-5.4-12-12
		c0-6.6,5.4-12,12-12s12,5.4,12,12C298,265.6,292.6,271,286,271z"/>
	<path fill="#616568" d="M80,140c-2.2,0-4,1.8-4,4v34c0,2.2,1.8,4,4,4h34c2.2,0,4-1.8,4-4v-23.6c0-1.6,0.5-3.1,1.3-4.4l5.6-8.4
		c0.4-0.7,0-1.6-0.8-1.6H80z M98.7,172l-1.1,1c-0.4,0.3-1,0.3-1.3,0l-1.1-1c-6.2-5.6-10.3-9.3-10.3-13.8c0-2.1,1-4.1,2.7-5.3
		c3.2-2.3,7.2-1.3,9.3,1.2c2.1-2.5,6.1-3.5,9.3-1.2c1.7,1.2,2.7,3.2,2.7,5.3C109,162.7,104.9,166.4,98.7,172z"/>
	<g opacity="0.87">
		<path fill="#616568" d="M199.7,242.2c0.3-0.5,0.4-0.8,0.4-1c0-0.2-0.1-0.3-0.3-0.3c-0.2,0-0.5,0.1-0.9,0.3
			c-0.4,0.2-0.8,0.5-1.2,0.9s-0.8,0.8-1.1,1.3s-0.5,1-0.6,1.6c0.9-0.3,1.6-0.8,2.3-1.3S199.5,242.7,199.7,242.2z"/>
		<path fill="#616568" d="M174.3,238.9c0.4-0.7,0.7-1.4,1-1.9c0.2-0.6,0.4-1,0.4-1.3c0-0.2-0.1-0.3-0.2-0.3c-0.1,0-0.2,0.1-0.3,0.2
			c-0.6,0.5-1.3,1.4-2,2.9c-0.7,1.4-1.3,2.9-1.6,4.3c0.5-0.5,1-1.1,1.5-1.7S173.9,239.6,174.3,238.9z"/>
		<path fill="#616568" d="M190.7,243.4c0.4-0.6,0.6-1,0.6-1.4c0-0.2-0.1-0.2-0.2-0.2c-0.4,0-1,0.4-1.9,1.1s-1.8,1.6-2.6,2.7
			c0.4,0,0.8,0.2,1.4,0.5c0.4-0.2,0.8-0.6,1.4-1.1C189.8,244.5,190.3,244,190.7,243.4z"/>
		<path fill="#616568" d="M245,223h-85.1c-0.6,0-1.2-0.1-1.8-0.4l-12.5-6.2c-0.9-0.4-1.8,0.5-1.3,1.3l6.2,12.5
			c0.3,0.6,0.4,1.2,0.4,1.8V257c0,1.1,0.9,2,2,2h92c1.1,0,2-0.9,2-2v-32C247,223.9,246.1,223,245,223z M181.3,236.4
			c0.4-0.5,0.8-0.8,1.3-0.8c0.3,0,0.5,0.1,0.7,0.3c0.2,0.2,0.3,0.4,0.3,0.8c0,0.4-0.2,0.9-0.6,1.4s-0.8,0.8-1.3,0.8
			c-0.2,0-0.5-0.1-0.7-0.3c-0.2-0.2-0.3-0.4-0.3-0.7C180.7,237.4,180.9,236.9,181.3,236.4z M202.4,246.3c-1.1,1.3-2.1,2.3-3.1,3.1
			c-1,0.7-1.9,1.1-2.9,1.1c-0.9,0-1.6-0.3-2.1-1s-0.8-1.6-0.8-2.8c0,0,0,0,0-0.1c-1,1.2-1.9,2.1-2.6,2.7c-0.7,0.7-1.4,1-1.9,1
			c-0.5,0-0.9-0.1-1.3-0.4c-0.4-0.3-0.7-0.7-1-1.2c-0.3-0.5-0.7-1.2-1.1-2.1c-0.5,0.6-0.9,1.2-1.3,1.7c-0.4,0.5-0.7,0.9-0.8,1.1
			s-0.3,0.3-0.4,0.3c-0.3,0-0.5-0.2-0.6-0.5c-0.1-0.3-0.2-0.8-0.2-1.5c0-0.3,0-0.5,0-0.8c-0.8,1-1.6,1.8-2.3,2.3
			c-0.8,0.6-1.5,0.9-2.1,0.9c-0.8,0-1.4-0.4-1.8-1.3c-0.3-0.7-0.5-1.4-0.6-2.3c-1.9,2.5-3.5,3.7-4.7,3.7c-0.7,0-1.2-0.4-1.6-1.1
			c-0.4-0.8-0.6-1.8-0.6-3c0-1,0.2-2.2,0.7-3.6c0.5-1.4,1.1-2.8,1.9-4.2c0.8-1.4,1.6-2.6,2.4-3.7c0.8-1.1,1.6-1.8,2.4-2.2
			c0.3-0.2,0.5-0.3,0.7-0.3c0.2,0,0.3,0.1,0.4,0.3c0.1,0.2,0.1,0.5,0.1,0.9c0,1.4-0.6,3-1.7,5c-1.1,2-2.6,4-4.6,6.1
			c-0.1,0.5-0.1,0.9-0.1,1.2c0,0.6,0.1,1.1,0.4,1.5s0.6,0.6,1.1,0.6c0.2,0,0.5-0.1,0.8-0.3c0.3-0.2,0.6-0.4,0.9-0.7
			c0.3-0.3,0.8-0.8,1.6-1.5c0-0.1,0-0.3,0.1-0.4c0.1-0.3,0.2-0.6,0.3-0.9s0.3-0.6,0.6-1.1c1.4-2.2,2.7-3.2,3.8-3.2
			c0.6,0,0.9,0.2,0.9,0.7c0,0.3-0.2,0.8-0.6,1.5s-0.7,1.1-1,1.4c-0.8,0.8-1.4,1.4-1.7,1.7s-0.4,0.7-0.4,1.1c0,0.4,0.1,0.6,0.4,0.9
			s0.6,0.4,1,0.4c0.5,0,1-0.2,1.5-0.5c0.5-0.3,1.2-0.8,2-1.5c0-0.1,0-0.3,0.1-0.4c0.2-0.8,0.5-1.6,0.9-2.4c0.4-0.8,0.9-1.6,1.5-2.5
			c0.6-0.9,1.3-1.8,2.1-2.8c1.1-1.3,2-2.4,2.8-3.3c0.8-0.9,1.4-1.5,2-1.9c0.6-0.4,1-0.7,1.4-0.7c0.5,0,0.7,0.2,0.7,0.6
			c0,0.4-0.9,1.7-2.6,3.9c-1.7,2.2-4.2,5.3-7.6,9.2v1.3c2.2-2.4,4-4.1,5.4-5.3s2.4-1.7,3.1-1.7c0.3,0,0.5,0.2,0.7,0.5
			c0.2,0.4,0.2,0.8,0.2,1.2c0,1-0.4,1.8-1.2,2.7c-0.8,0.8-2.1,1.8-3.8,2.8c0.3,0.4,0.6,0.8,0.8,1c0.2,0.2,0.5,0.3,0.8,0.3
			c0.3,0,0.6-0.1,1-0.3s0.7-0.5,1.1-0.8c0.4-0.3,0.9-0.8,1.6-1.5c0.1-0.6,0.3-1.1,0.6-1.6c0.5-0.8,1.3-1.7,2.3-2.6
			c0.7-0.6,1.5-1.1,2.2-1.4s1.4-0.5,2-0.5c0.5,0,0.8,0.1,1.1,0.3c0.3,0.2,0.4,0.5,0.4,0.9c0,0.6-0.2,1.2-0.7,1.8
			c-0.5,0.6-1.2,1.2-2.1,1.8c-0.9,0.6-2.1,1.2-3.5,1.7v0.4c0,0.6,0.1,1,0.4,1.3s0.7,0.5,1.1,0.5c0.5,0,1-0.1,1.5-0.3
			c0.5-0.2,1-0.5,1.5-0.9s1.1-0.9,1.9-1.5V246.3z M231.7,246.3c-1.2,1.2-2.4,2.1-3.4,2.8c-1,0.6-1.8,0.9-2.5,0.9
			c-0.9,0-1.8-0.4-2.5-1.2c-0.5-0.5-0.7-0.9-0.9-1.3c-0.1-0.3-0.1-0.6-0.1-1c-1,0.9-1.8,1.6-2.3,2.1c-0.5,0.5-1,0.8-1.4,1.1
			s-0.8,0.4-1.1,0.4c-0.8,0-1.2-0.5-1.2-1.5c0-0.4,0.1-0.9,0.4-1.5c0.2-0.6,0.6-1.5,1.2-2.7c-1.4,1.9-2.5,3.2-3.2,4
			c-0.7,0.8-1.3,1.2-1.8,1.2c-0.4,0-0.7-0.2-1-0.5c-0.3-0.3-0.6-0.7-0.7-1.2c-0.2-0.5-0.3-1.1-0.3-1.7c0-0.4,0-0.7,0.1-1.1
			c0.1-0.3,0.2-0.7,0.4-1c0.2-0.4,0.5-0.8,0.8-1.2c0.3-0.4,0.8-0.9,1.2-1.5c0.3-0.3,0.5-0.6,0.7-0.9c0.2-0.2,0.4-0.4,0.6-0.5
			c0.2-0.1,0.5-0.1,0.9-0.1c0.3,0,0.6,0,0.9,0.1c0.3,0.1,0.4,0.2,0.4,0.3c0,0.2-0.1,0.5-0.4,1c-0.3,0.5-0.8,1-1.4,1.7
			c-0.6,0.7-1.4,1.3-2.2,1.9c-0.2,0.6-0.3,1-0.3,1.3c0,0.4,0.2,0.6,0.5,0.6c0.1,0,0.3-0.1,0.6-0.3c0.3-0.2,0.7-0.6,1.4-1.2
			c0.6-0.6,1.2-1.1,1.8-1.5c0.4-0.3,0.8-0.8,1.3-1.5c0.5-0.7,0.9-1.2,1.2-1.5c0.7-0.8,1.2-1.3,1.5-1.5c0.3-0.2,0.5-0.3,0.8-0.3
			c0.2,0,0.4,0.1,0.5,0.2s0.1,0.4,0.1,0.9c0,0.2,0,0.4-0.1,0.5s-0.1,0.3-0.2,0.5c-0.1,0.2-0.4,0.6-0.7,1.1s-0.8,1.2-1.3,1.9
			c-0.3,0.4-0.5,0.8-0.7,1.3c-0.2,0.5-0.3,0.8-0.3,1c0,0.5,0.2,0.8,0.6,0.8c0.3,0,0.7-0.1,1.2-0.4c0.4-0.2,1-0.7,1.8-1.3v-0.1
			c2.5-2.7,4.3-4.5,5.2-5.6c0.2-1.2,0.7-1.8,1.6-1.8c0.2,0,0.4,0.1,0.7,0.2l0.1,0.3c0,0.1-0.1,0.3-0.1,0.5c0,0.2,0.1,0.5,0.2,1
			c0.1,0.5,0.3,0.9,0.3,1.3s0.1,0.7,0.1,1.2c0,0.6-0.1,1.3-0.4,1.9c-0.3,0.6-0.7,1.2-1.3,1.7c-0.6,0.5-1.3,1.1-2.2,1.7
			c0.4,0.1,0.6,0.1,0.8,0.1c0.4,0,0.8-0.1,1.3-0.3c0.5-0.2,0.9-0.5,1.4-0.8c0.5-0.3,1-0.8,1.7-1.3V246.3z"/>
		<path fill="#616568" d="M227.2,246c0.4-0.5,0.5-1.1,0.5-1.9c0-0.1,0-0.2,0-0.3c0-0.1,0-0.2,0-0.2l-0.3-2.1c-0.6,0.7-1.9,2-3.9,3.9
			c0.6,0.1,1,0.3,1.2,0.5s0.5,0.6,0.9,1.2C226.3,246.8,226.8,246.5,227.2,246z"/>
	</g>
	<g>
		<path fill="#616568" d="M432,120h-23.6c-1.6,0-3.1-0.5-4.4-1.3l-8.4-5.6c-0.7-0.4-1.6,0-1.6,0.8V158c0,2.2,1.8,4,4,4h34
			c2.2,0,4-1.8,4-4v-34C436,121.8,434.2,120,432,120z M415,153c-6.6,0-12-5.4-12-12c0-6.6,5.4-12,12-12s12,5.4,12,12
			C427,147.6,421.6,153,415,153z"/>
		<path fill="#616568" d="M419.2,144.4c-1.1,1.7-2.6,2.6-4.2,2.6s-3-0.9-4.2-2.6c-0.3-0.5-0.9-0.6-1.4-0.3c-0.5,0.3-0.6,0.9-0.3,1.4
			c1.5,2.2,3.6,3.4,5.8,3.4s4.3-1.2,5.8-3.4c0.3-0.5,0.2-1.1-0.3-1.4C420.1,143.9,419.5,144,419.2,144.4z"/>
		<ellipse fill="#616568" cx="419.5" cy="138" rx="2.5" ry="3"/>
		<ellipse fill="#616568" cx="410.5" cy="138" rx="2.5" ry="3"/>
	</g>
	<path fill="#616568" d="M292,263h-12C282.8,269.7,289.2,269.7,292,263z"/>
	<ellipse fill="#616568" cx="290.5" cy="256.5" rx="2.5" ry="3.5"/>
	<ellipse fill="#616568" cx="281.5" cy="256.5" rx="2.5" ry="3.5"/>
</g>
<g id="Ebene_2" display="none">
	<path display="inline" opacity="0.25" fill="#616568" d="M360,224h40c3.2,0,6.2-1.3,8.5-3.5l3.2-3.2c0.7-0.7,2-0.8,2.7-0.1l4.2,3.7
		c2.2,2,5,3,8,3H468c4.4,0,8,3.6,8,8v18c0,4.4-3.6,8-8,8H360c-4.4,0-8-3.6-8-8v-18C352,227.6,355.6,224,360,224z"/>
	<path display="inline" opacity="0.25" fill="#616568" d="M356.8,122l4.5,11.9c0.3,0.8-0.5,1.6-1.3,1.3l-11.9-4.5
		c-1.3-0.5-2.8-0.8-4.2-0.8H228c-4.4,0-8-3.6-8-8v-20c0-4.4,3.6-8,8-8h120c4.4,0,8,3.6,8,8v15.8C356,119.3,356.3,120.7,356.8,122z"
		/>
	<path display="inline" opacity="0.25" fill="#616568" d="M423,295h34.3c1.1,0,2.1-0.4,2.8-1.2l5.4-5.4c0.8-0.8,2-0.8,2.8,0l5.4,5.4
		c0.8,0.8,1.8,1.2,2.8,1.2H511c2.2,0,4,1.8,4,4v28c0,2.2-1.8,4-4,4h-88c-2.2,0-4-1.8-4-4v-28C419,296.8,420.8,295,423,295z"/>
	<path display="inline" opacity="0.25" fill="#616568" d="M232,312h21.7c2.1,0,4.2-0.8,5.7-2.3l4.3-4.3c0.7-0.7,2-0.8,2.7-0.1
		l5.3,4.7c1.5,1.3,3.4,2,5.3,2h93c2.2,0,4,1.8,4,4v28c0,2.2-1.8,4-4,4H232c-2.2,0-4-1.8-4-4v-28C228,313.8,229.8,312,232,312z"/>
	<path display="inline" opacity="0.25" fill="#616568" d="M330,158h-16.5c-1,0-1.9-0.4-2.7-1l-6.5-5.7c-0.8-0.7-2-0.7-2.7,0.1
		l-5.5,5.5c-0.8,0.8-1.8,1.2-2.8,1.2H170c-1.1,0-2,0.9-2,2v32c0,1.1,0.9,2,2,2h16.5c1,0,1.9,0.4,2.7,1l6.5,5.7
		c0.8,0.7,2,0.7,2.7-0.1l5.5-5.5c0.8-0.8,1.8-1.2,2.8-1.2H330c1.1,0,2-0.9,2-2v-32C332,158.9,331.1,158,330,158z"/>
	<path display="inline" opacity="0.25" fill="#616568" d="M329,49h104.1c1.2,0,2.5,0.3,3.6,0.8l11.4,5.7c1.3,0.7,2.9-0.3,2.9-1.8V24
		c0-2.2-1.8-4-4-4H329c-2.2,0-4,1.8-4,4v21C325,47.2,326.8,49,329,49z"/>
	<path display="inline" opacity="0.25" fill="#616568" d="M573,99h-78c-2.2,0-4-1.8-4-4v-6.3c0-1.1-0.4-2.1-1.2-2.8l-5.4-5.4
		c-0.8-0.8-0.8-2,0-2.8l5.4-5.4c0.8-0.8,1.2-1.8,1.2-2.8V63c0-2.2,1.8-4,4-4h78c2.2,0,4,1.8,4,4v32C577,97.2,575.2,99,573,99z"/>
	<path display="inline" opacity="0.25" fill="#616568" d="M582,184h-94.1c-1.2,0-2.5,0.3-3.6,0.8l-11.4,5.7
		c-1.3,0.7-2.9-0.3-2.9-1.8V152c0-2.2,1.8-4,4-4h108c2.2,0,4,1.8,4,4v28C586,182.2,584.2,184,582,184z"/>
	<path display="inline" opacity="0.25" fill="#616568" d="M279,34h-96c-1.1,0-2,0.9-2,2v27.2c0,0.5-0.1,1.1-0.3,1.6L176,75.7
		c-0.4,0.8,0.5,1.7,1.3,1.3l10.9-4.7c0.5-0.2,1-0.3,1.6-0.3H279c1.1,0,2-0.9,2-2V36C281,34.9,280.1,34,279,34z"/>
	<path display="inline" opacity="0.25" fill="#616568" d="M101,292.2h74.7c1,0,1.4,1.3,0.6,1.8l-7.5,5c-1.1,0.7-1.8,2-1.8,3.3v23.9
		c0,2.2-1.8,4-4,4h-62c-2.2,0-4-1.8-4-4v-30C97,294,98.8,292.2,101,292.2z"/>
	<path display="inline" opacity="0.25" fill="#616568" d="M153,223l72,0.2c1.1,0,2,0.9,2,2V257c0,1.1-0.9,2-2,2h-72
		c-1.1,0-2-0.9-2-2v-9c0-0.5-0.2-1-0.6-1.4l-4-4c-0.8-0.8-0.8-2,0-2.8l4-4c0.4-0.4,0.6-0.9,0.6-1.4V225C151,223.9,151.9,223,153,223
		z"/>
	<path display="inline" opacity="0.25" fill="#616568" d="M101,248.2L21,248c-1.1,0-2-0.9-2-2v-35.8c0-1.1,0.9-2,2-2h80
		c1.1,0,2,0.9,2,2v10.2c0,1.1,0.4,2.1,1.2,2.8l3.4,3.4c0.8,0.8,0.8,2,0,2.8l-3.4,3.4c-0.8,0.8-1.2,1.8-1.2,2.8v10.5
		C103,247.3,102.1,248.2,101,248.2z"/>
	<path display="inline" opacity="0.25" fill="#616568" d="M34,71h112c1.1,0,2,0.9,2,2v40.4c0,1.6-1.7,2.5-3.1,1.7l-12-7.5
		c-0.6-0.4-1.4-0.6-2.1-0.6H34c-1.1,0-2-0.9-2-2V73C32,71.9,32.9,71,34,71z"/>
	<path display="inline" opacity="0.25" fill="#616568" d="M315.6,228.1l-14.7,8.8c-1.2,0.7-2.7,1.1-4.1,1.1H269c-2.2,0-4,1.8-4,4v34
		c0,2.2,1.8,4,4,4h34c2.2,0,4-1.8,4-4v-27.8c0-1.4,0.4-2.9,1.1-4.1l8.8-14.7C317.5,228.5,316.5,227.5,315.6,228.1z M286,271
		c-6.6,0-12-5.4-12-12c0-6.6,5.4-12,12-12s12,5.4,12,12C298,265.6,292.6,271,286,271z"/>
	<g display="inline">
		<path opacity="0.25" fill="#616568" d="M124.1,140H80c-2.2,0-4,1.8-4,4v34c0,2.2,1.8,4,4,4h34c2.2,0,4-1.8,4-4v-23.6
			c0-1.6,0.5-3.1,1.3-4.4l5.6-8.4C125.4,140.9,124.9,140,124.1,140z M98.7,172l-1.7,1.6l-1.7-1.6c-6.2-5.6-10.3-9.3-10.3-13.8
			c0-3.7,2.9-6.6,6.6-6.6c2.1,0,4.1,1,5.4,2.5c1.3-1.5,3.3-2.5,5.4-2.5c3.7,0,6.6,2.9,6.6,6.6C109,162.7,104.9,166.4,98.7,172z"/>
	</g>
	<path display="inline" opacity="0.25" fill="#616568" d="M432,120h-23.6c-1.6,0-3.1-0.5-4.4-1.3l-8.4-5.6c-0.7-0.4-1.6,0-1.6,0.8
		V158c0,2.2,1.8,4,4,4h34c2.2,0,4-1.8,4-4v-34C436,121.8,434.2,120,432,120z M415,153c-6.6,0-12-5.4-12-12c0-6.6,5.4-12,12-12
		s12,5.4,12,12C427,147.6,421.6,153,415,153z"/>
	<path display="inline" opacity="0.25" fill="#616568" d="M619,264h-92c-1.1,0-2-0.9-2-2v-25.1c0-0.6-0.1-1.2-0.4-1.8l-6.2-12.5
		c-0.4-0.9,0.5-1.8,1.3-1.3l12.5,6.2c0.6,0.3,1.2,0.4,1.8,0.4H619c1.1,0,2,0.9,2,2v32C621,263.1,620.1,264,619,264z"/>
	<path display="inline" fill="none" stroke="#616568" stroke-width="2" stroke-linejoin="round" stroke-miterlimit="10" d="M360,224
		h40c3.2,0,6.2-1.3,8.5-3.5l3.2-3.2c0.7-0.7,2-0.8,2.7-0.1l4.2,3.7c2.2,2,5,3,8,3H468c4.4,0,8,3.6,8,8v18c0,4.4-3.6,8-8,8H360
		c-4.4,0-8-3.6-8-8v-18C352,227.6,355.6,224,360,224z"/>
	
		<path display="inline" opacity="0.5" fill="none" stroke="#616568" stroke-width="2" stroke-linecap="round" stroke-linejoin="round" stroke-miterlimit="10" d="
		M243,90h107c5.5,0,10,4.5,10,10v10"/>
	
		<path display="inline" opacity="0.5" fill="none" stroke="#616568" stroke-width="2" stroke-linecap="round" stroke-linejoin="round" stroke-miterlimit="10" d="
		M429,220h41c5.5,0,10,4.5,10,10v10"/>
	<path display="inline" fill="none" stroke="#616568" stroke-width="2" stroke-linejoin="round" stroke-miterlimit="10" d="
		M356.8,122l4.5,11.9c0.3,0.8-0.5,1.6-1.3,1.3l-11.9-4.5c-1.3-0.5-2.8-0.8-4.2-0.8H228c-4.4,0-8-3.6-8-8v-20c0-4.4,3.6-8,8-8h120
		c4.4,0,8,3.6,8,8v15.8C356,119.3,356.3,120.7,356.8,122z"/>
	<path display="inline" fill="none" stroke="#616568" stroke-width="2" stroke-linejoin="round" stroke-miterlimit="10" d="M423,295
		h34.3c1.1,0,2.1-0.4,2.8-1.2l5.4-5.4c0.8-0.8,2-0.8,2.8,0l5.4,5.4c0.8,0.8,1.8,1.2,2.8,1.2H511c2.2,0,4,1.8,4,4v28c0,2.2-1.8,4-4,4
		h-88c-2.2,0-4-1.8-4-4v-28C419,296.8,420.8,295,423,295z"/>
	<path display="inline" fill="none" stroke="#616568" stroke-width="2" stroke-linejoin="round" stroke-miterlimit="10" d="M232,312
		h21.7c2.1,0,4.2-0.8,5.7-2.3l4.3-4.3c0.7-0.7,2-0.8,2.7-0.1l5.3,4.7c1.5,1.3,3.4,2,5.3,2h93c2.2,0,4,1.8,4,4v28c0,2.2-1.8,4-4,4
		H232c-2.2,0-4-1.8-4-4v-28C228,313.8,229.8,312,232,312z"/>
	<path display="inline" fill="none" stroke="#616568" stroke-width="2" stroke-linejoin="round" stroke-miterlimit="10" d="M330,158
		h-16.5c-1,0-1.9-0.4-2.7-1l-6.5-5.7c-0.8-0.7-2-0.7-2.7,0.1l-5.5,5.5c-0.8,0.8-1.8,1.2-2.8,1.2H170c-1.1,0-2,0.9-2,2v32
		c0,1.1,0.9,2,2,2h16.5c1,0,1.9,0.4,2.7,1l6.5,5.7c0.8,0.7,2,0.7,2.7-0.1l5.5-5.5c0.8-0.8,1.8-1.2,2.8-1.2H330c1.1,0,2-0.9,2-2v-32
		C332,158.9,331.1,158,330,158z"/>
	<path display="inline" fill="none" stroke="#616568" stroke-width="2" stroke-linejoin="round" stroke-miterlimit="10" d="M329,49
		h104.1c1.2,0,2.5,0.3,3.6,0.8l11.4,5.7c1.3,0.7,2.9-0.3,2.9-1.8V24c0-2.2-1.8-4-4-4H329c-2.2,0-4,1.8-4,4v21
		C325,47.2,326.8,49,329,49z"/>
	
		<path display="inline" opacity="0.5" fill="none" stroke="#616568" stroke-width="2" stroke-linecap="round" stroke-linejoin="round" stroke-miterlimit="10" d="
		M455,43V22c0-3.3-2.7-6-6-6H338"/>
	<path display="inline" fill="none" stroke="#616568" stroke-width="2" stroke-linejoin="round" stroke-miterlimit="10" d="M573,99
		h-78c-2.2,0-4-1.8-4-4v-6.3c0-1.1-0.4-2.1-1.2-2.8l-5.4-5.4c-0.8-0.8-0.8-2,0-2.8l5.4-5.4c0.8-0.8,1.2-1.8,1.2-2.8V63
		c0-2.2,1.8-4,4-4h78c2.2,0,4,1.8,4,4v32C577,97.2,575.2,99,573,99z"/>
	<path display="inline" fill="none" stroke="#616568" stroke-width="2" stroke-linejoin="round" stroke-miterlimit="10" d="M582,184
		h-94.1c-1.2,0-2.5,0.3-3.6,0.8l-11.4,5.7c-1.3,0.7-2.9-0.3-2.9-1.8V152c0-2.2,1.8-4,4-4h108c2.2,0,4,1.8,4,4v28
		C586,182.2,584.2,184,582,184z"/>
	<path display="inline" fill="none" stroke="#616568" stroke-width="2" stroke-linejoin="round" stroke-miterlimit="10" d="M619,264
		h-92c-1.1,0-2-0.9-2-2v-25.1c0-0.6-0.1-1.2-0.4-1.8l-6.2-12.5c-0.4-0.9,0.5-1.8,1.3-1.3l12.5,6.2c0.6,0.3,1.2,0.4,1.8,0.4H619
		c1.1,0,2,0.9,2,2v32C621,263.1,620.1,264,619,264z"/>
	
		<path display="inline" opacity="0.5" fill="none" stroke="#616568" stroke-width="2" stroke-linecap="round" stroke-linejoin="round" stroke-miterlimit="10" d="
		M543,224h78c2.2,0,4,1.8,4,4v27"/>
	<path display="inline" fill="none" stroke="#616568" stroke-width="2" stroke-linejoin="round" stroke-miterlimit="10" d="M279,34
		h-96c-1.1,0-2,0.9-2,2v27.2c0,0.5-0.1,1.1-0.3,1.6L176,75.7c-0.4,0.8,0.5,1.7,1.3,1.3l10.9-4.7c0.5-0.2,1-0.3,1.6-0.3H279
		c1.1,0,2-0.9,2-2V36C281,34.9,280.1,34,279,34z"/>
	
		<path display="inline" opacity="0.5" fill="none" stroke="#616568" stroke-width="2" stroke-linecap="round" stroke-linejoin="round" stroke-miterlimit="10" d="
		M285,56V34c0-2.2-1.8-4-4-4h-85"/>
	
		<path display="inline" opacity="0.5" fill="none" stroke="#616568" stroke-width="2" stroke-linecap="round" stroke-linejoin="round" stroke-miterlimit="10" d="
		M336,180v-22c0-2.2-1.8-4-4-4h-16"/>
	
		<path display="inline" opacity="0.5" fill="none" stroke="#616568" stroke-width="2" stroke-linecap="round" stroke-linejoin="round" stroke-miterlimit="10" d="
		M152,101V71c0-2.2-1.8-4-4-4H63"/>
	<path display="inline" fill="none" stroke="#616568" stroke-width="2" stroke-linejoin="round" stroke-miterlimit="10" d="
		M101,292.2h74.7c1,0,1.4,1.3,0.6,1.8l-7.5,5c-1.1,0.7-1.8,2-1.8,3.3v23.9c0,2.2-1.8,4-4,4h-62c-2.2,0-4-1.8-4-4v-30
		C97,294,98.8,292.2,101,292.2z"/>
	
		<path display="inline" opacity="0.5" fill="none" stroke="#616568" stroke-width="2" stroke-linejoin="round" stroke-miterlimit="10" d="
		M113,288.2h65.8c4,0,5.5,5.1,2.2,7.3l-9.1,6.1c-0.6,0.4-0.9,1-0.9,1.7v18.9"/>
	<path display="inline" fill="none" stroke="#616568" stroke-width="2" stroke-linejoin="round" stroke-miterlimit="10" d="M153,223
		l72,0.2c1.1,0,2,0.9,2,2V257c0,1.1-0.9,2-2,2h-72c-1.1,0-2-0.9-2-2v-9c0-0.5-0.2-1-0.6-1.4l-4-4c-0.8-0.8-0.8-2,0-2.8l4-4
		c0.4-0.4,0.6-0.9,0.6-1.4V225C151,223.9,151.9,223,153,223z"/>
	
		<text transform="matrix(1.5 0 0 1 428.9961 319)" display="inline" fill="#616568" font-family="'TimesNewRomanPS-BoldMT'" font-size="24px">news</text>
	<g display="inline">
		<text transform="matrix(1.1 0 0 1 237.9746 118)" fill="#616568" font-family="'TimesNewRomanPS-BoldItalicMT'" font-size="20px">get updates</text>
	</g>
	<g display="inline">
		<text transform="matrix(1.5 0 0 1 180.4121 182)" fill="#616568" font-family="'TimesNewRomanPS-BoldItalicMT'" font-size="20px">message us</text>
	</g>
	<g display="inline">
		<g>
			<g>
				<path fill="#616568" d="M343.7,37.6c0-0.5-0.3-0.8-1.2-1l-0.7-0.2c-2-0.6-3.2-1.3-3.2-2.6c0-1.3,1.6-2.2,4.3-2.2
					c1.2,0,2.4,0.2,3.3,0.5l-0.1,1.6h-1.7l-0.4-1.7l1.4,0.3v0.6c-0.9-0.4-1.5-0.6-2.4-0.6c-0.8,0-1.5,0.4-1.5,0.9
					c0,0.5,0.5,0.8,1.4,1.1l0.8,0.3c2.1,0.7,3,1.3,3,2.4c0,1.3-1.4,2.3-4.5,2.3c-1.2,0-2.7-0.2-3.7-0.6l0.1-1.7h1.7l0.4,1.8
					l-1.4-0.3V38c1.1,0.3,1.8,0.5,2.8,0.5C343.3,38.5,343.7,38.1,343.7,37.6z"/>
				<path fill="#616568" d="M347.5,32.5v-0.6h5.7v0.6l-2.6,0.2h-0.5L347.5,32.5z M354.1,38.1c1.3,0,2.2-0.6,2.2-2.2v-4.1h1.2v4
					c0,2.3-1.6,3.4-4.5,3.4c-2.5,0-4.3-0.8-4.3-2.9v-1.2c0-1.1,0-2.2,0-3.3h3.4c-0.1,1.1-0.1,2.2-0.1,3.3v0.8
					C351.9,37.5,352.6,38.1,354.1,38.1z M356.6,32.6l-1.7-0.1v-0.6h3.9v0.6l-1.7,0.1H356.6z"/>
				<path fill="#616568" d="M359.7,32.5v-0.6h2.8v0.8h-0.3L359.7,32.5z M363.1,38.2l2.5,0.2V39h-5.9v-0.6l2.5-0.2H363.1z
					 M360.8,35.2c0-1.1,0-2.3,0-3.4h3.4c0,1.1,0,2.3,0,3.4v0.7c0,0.8,0,2,0,3.1h-3.4c0-1.1,0-2.3,0-3.4V35.2z M364.4,36.3h-1.9v-0.7
					h1.9c1.2,0,1.9-0.7,1.9-1.6s-0.8-1.5-2-1.5h-1.8v-0.7h1.7c3.7,0,5.1,0.8,5.1,2.2C369.2,35.3,368,36.3,364.4,36.3z"/>
				<path fill="#616568" d="M369.9,32.5v-0.6h2.8v0.8h-0.3L369.9,32.5z M373.3,38.2l2.5,0.2V39h-5.9v-0.6l2.5-0.2H373.3z
					 M371.1,35.2c0-1.1,0-2.3,0-3.4h3.4c0,1.1,0,2.3,0,3.4v0.7c0,0.8,0,2,0,3.1H371c0-1.1,0-2.3,0-3.4V35.2z M374.6,36.3h-1.9v-0.7
					h1.9c1.2,0,1.9-0.7,1.9-1.6s-0.8-1.5-2-1.5h-1.8v-0.7h1.7c3.7,0,5.1,0.8,5.1,2.2C379.5,35.3,378.3,36.3,374.6,36.3z"/>
				<path fill="#616568" d="M390.8,35.4c0,2.6-2.5,3.8-5.3,3.8s-5.3-1.2-5.3-3.8c0-2.6,2.5-3.8,5.3-3.8S390.8,32.8,390.8,35.4z
					 M385.5,38.5c1.4,0,1.9-1.2,1.9-3.1c0-1.9-0.5-3.1-1.9-3.1s-1.9,1.3-1.9,3.1C383.6,37.3,384.1,38.5,385.5,38.5z"/>
				<path fill="#616568" d="M391.7,32.5v-0.6h2.8v0.8h-0.3L391.7,32.5z M394.8,38.2l2.5,0.2V39h-5.6v-0.6l2.5-0.2H394.8z
					 M392.9,35.2c0-1.1,0-2.3,0-3.4h3.3c0,1.1,0,2.3,0,3.4v0.3c0,1.1,0,2.3,0,3.4h-3.3c0-1.1,0-2.3,0-3.4V35.2z M394.5,35.1h1.9
					c1.6,0,1.9-0.6,1.9-1.3c0-0.9-0.7-1.3-1.9-1.3h-2v-0.7h2.9c2.6,0,4,0.7,4,1.8c0,0.8-0.9,1.7-4.1,1.8v-0.1c3.2,0,3.8,0.7,4,1.9
					l0.3,1.7l-1.7-0.7l2.8,0.2V39c-1,0.1-1.2,0.2-2,0.2c-1.5,0-2.5-0.3-2.7-1.3l-0.2-1.1c-0.1-0.7-0.4-1.1-1.3-1.1h-2V35.1z"/>
				<path fill="#616568" d="M403.7,32.5l1.4-0.6l-0.4,2.1h-1.6l0-2.1h9.9l0,2.1h-1.5l-0.4-2.1l1.4,0.6H403.7z M408.5,38.2l2.6,0.2
					V39h-5.9v-0.6l2.5-0.2H408.5z M406.4,35.2c0-1.1,0-2.3,0-3.4h3.4c-0.1,1.1-0.1,2.3-0.1,3.4v0.3c0,1.1,0,2.3,0.1,3.4h-3.4
					c0-1.1,0-2.3,0-3.4V35.2z"/>
				<path fill="#616568" d="M417.2,32.5v-0.6h5.7v0.6l-2.6,0.2h-0.5L417.2,32.5z M423.8,38.1c1.3,0,2.2-0.6,2.2-2.2v-4.1h1.2v4
					c0,2.3-1.6,3.4-4.5,3.4c-2.5,0-4.3-0.8-4.3-2.9v-1.2c0-1.1,0-2.2-0.1-3.3h3.4c0,1.1,0,2.2,0,3.3v0.8
					C421.6,37.5,422.3,38.1,423.8,38.1z M426.3,32.6l-1.7-0.1v-0.6h3.9v0.6l-1.6,0.1H426.3z"/>
				<path fill="#616568" d="M434.6,37.6c0-0.5-0.3-0.8-1.2-1l-0.7-0.2c-2-0.6-3.2-1.3-3.2-2.6c0-1.3,1.6-2.2,4.3-2.2
					c1.2,0,2.4,0.2,3.3,0.5l-0.1,1.6h-1.7l-0.4-1.7l1.4,0.3v0.6c-0.9-0.4-1.5-0.6-2.4-0.6c-0.8,0-1.5,0.4-1.5,0.9
					c0,0.5,0.5,0.8,1.4,1.1l0.8,0.3c2.1,0.7,3,1.3,3,2.4c0,1.3-1.4,2.3-4.5,2.3c-1.2,0-2.7-0.2-3.7-0.6l0.1-1.7h1.7l0.4,1.8
					l-1.4-0.3V38c1.1,0.3,1.8,0.5,2.8,0.5C434.2,38.5,434.6,38.1,434.6,37.6z"/>
			</g>
		</g>
	</g>
	<g display="inline">
		<text transform="matrix(1.1 0 0 1 244.7051 334)" fill="#616568" font-family="'HoeflerText-BlackItalic'" font-size="17px">become a fan</text>
	</g>
	
		<text transform="matrix(1.5 0 0 1 192.8086 59)" display="inline" fill="#616568" font-family="'DINCondensed-Bold'" font-size="18px">contact</text>
	
		<text transform="matrix(1.5 0 0 1 111.2891 317)" display="inline" fill="#616568" font-family="'DINCondensed-Bold'" font-size="21px">post</text>
	
		<text transform="matrix(1.5 0 0 1 162.595 246.801)" display="inline" fill="#616568" font-family="'HoeflerText-Black'" font-size="17px">blog</text>
	<path display="inline" fill="none" stroke="#616568" stroke-width="2" stroke-linejoin="round" stroke-miterlimit="10" d="
		M101,248.2L21,248c-1.1,0-2-0.9-2-2v-35.8c0-1.1,0.9-2,2-2h80c1.1,0,2,0.9,2,2v10.2c0,1.1,0.4,2.1,1.2,2.8l3.4,3.4
		c0.8,0.8,0.8,2,0,2.8l-3.4,3.4c-0.8,0.8-1.2,1.8-1.2,2.8v10.5C103,247.3,102.1,248.2,101,248.2z"/>
	
		<text transform="matrix(1.5 0 0 1 36.6558 236.4264)" display="inline" fill="#616568" font-family="'DINCondensed-Bold'" font-size="22px">feed</text>
	<g display="inline">
		<text transform="matrix(1.5 0 0 1 365.917 246)" fill="#616568" font-family="'BrushScriptMT'" font-size="24px">comment</text>
	</g>
	<g display="inline">
		<g>
			<path fill="#616568" d="M488.7,166.7h-1.3v-1.2l2.4-0.3l-1.1,0.6c0.2-2.3,0.9-3.4,1.7-4.2c1-1,2.2-1.3,3.3-1.3
				c1.1,0,2.1,0.4,2.4,1.4c0,0.8-0.5,1.3-1.4,1.3c-0.7,0-1.2-0.4-1.8-1.4l-0.5-0.7l2-0.4l0.2,0.6c-0.2-0.1-0.4-0.3-0.7-0.3
				c-0.7,0-1.2,0.6-1.5,1c-0.6,0.9-0.7,2.3-0.5,4.6v4.4c0,1.4,0,2.8,0.1,4.2h-3.3c0-1.4,0.1-2.8,0.1-4.2V166.7z M493.4,174.1v0.9
				h-5.9v-0.9l2-0.4h2L493.4,174.1z M494,165.3v1.4h-3.7v-1.4H494z"/>
			<path fill="#616568" d="M494.8,170.1c0-3.1,2.2-5.1,5.1-5.1c2.9,0,5.1,2,5.1,5.1s-2,5.2-5.1,5.2
				C496.7,175.3,494.8,173.2,494.8,170.1z M501.5,170.2c0-2.8-0.6-4.1-1.7-4.1c-1.1,0-1.7,1.3-1.7,4.1c0,2.9,0.6,4.1,1.7,4.1
				C501,174.3,501.5,173,501.5,170.2z"/>
			<path fill="#616568" d="M510.1,160.5l0.3,0.2l-0.1,2.8v7.3c0,1.4,0,2.8,0.1,4.2h-3.3c0-1.4,0.1-2.8,0.1-4.2v-8.4l-1.2-0.2v-0.8
				L510.1,160.5z M511.5,174.1v0.9H506v-0.9l1.9-0.4h1.5L511.5,174.1z"/>
			<path fill="#616568" d="M516.6,160.5l0.3,0.2l-0.1,2.8v7.3c0,1.4,0,2.8,0.1,4.2h-3.3c0-1.4,0.1-2.8,0.1-4.2v-8.4l-1.2-0.2v-0.8
				L516.6,160.5z M518,174.1v0.9h-5.5v-0.9l1.9-0.4h1.5L518,174.1z"/>
			<path fill="#616568" d="M519,170.1c0-3.1,2.2-5.1,5.1-5.1c2.9,0,5.1,2,5.1,5.1s-2,5.2-5.1,5.2C521,175.3,519,173.2,519,170.1z
				 M525.8,170.2c0-2.8-0.6-4.1-1.7-4.1c-1.1,0-1.7,1.3-1.7,4.1c0,2.9,0.6,4.1,1.7,4.1C525.2,174.3,525.8,173,525.8,170.2z"/>
			<path fill="#616568" d="M531.5,166.5l-1.9-0.3v-0.9h5.3v0.9l-2.3,0.3H531.5z M539.3,165.3l2.3,7l-0.5-0.2l2.2-6.8h1.4l-3.4,9.7
				h-1.5c-1.7-4.4-2.3-6.3-2.7-7.8l0.9-0.1l-2.8,7.9h-1.5l-3.5-9.7h3.3l2.1,7l-0.5-0.2l2.3-6.8H539.3z M535.8,166.2v-0.9h4.9v0.9
				l-1.9,0.3H538L535.8,166.2z M543.4,166.5l-1.7-0.3v-0.9h3.6v0.9l-1.6,0.3H543.4z"/>
			<path fill="#616568" d="M554.5,171.7c0,1.2,0.4,1.7,1.1,1.7c0.8,0,1.8-0.8,2.4-1.6h0.8v1.3h-1.3l0.6-0.6c-1,1.8-2.3,2.8-3.9,2.8
				c-1.7,0-2.9-1-2.8-3.6l0.1-5.4l0.6,0.6l-1.8-0.4v-0.8l4.1-0.6l0.3,0.2l-0.1,2.8V171.7z M557.5,175.2l-0.2-2.4l0.1-6.6l0.6,0.7
				l-1.7-0.4v-0.8l4-0.6l0.3,0.2l-0.1,2.8v6.6l-1.3-1.2l2.4,0.5v0.9L557.5,175.2z"/>
			<path fill="#616568" d="M562.6,174.4l0-2.5h1.6l0.5,2.7l-1.1-0.4v-0.8c0.9,0.5,1.6,0.8,2.5,0.8c1.2,0,1.8-0.4,1.8-1.2
				c0-0.6-0.4-1-1.7-1.4l-1.1-0.3c-1.5-0.5-2.4-1.5-2.4-3c0-1.8,1.5-3.3,4.2-3.3c1.2,0,2.1,0.3,3.2,0.8l-0.1,2.2h-1.6l-0.6-2.5
				l1.1,0.5v0.7c-0.7-0.5-1.1-0.6-2-0.6s-1.5,0.4-1.5,1.1c0,0.6,0.3,0.9,1.7,1.4l1,0.3c1.9,0.6,2.7,1.6,2.7,3.1
				c0,2.1-1.7,3.3-4.5,3.3C564.7,175.3,563.6,175,562.6,174.4z"/>
		</g>
	</g>
	<text transform="matrix(1 0 0 1 542.6084 255)" display="inline" fill="#616568" font-family="'BrushScriptMT'" font-size="30px">like us</text>
	<path display="inline" fill="none" stroke="#616568" stroke-width="2" stroke-linejoin="round" stroke-miterlimit="10" d="M34,71
		h112c1.1,0,2,0.9,2,2v40.4c0,1.6-1.7,2.5-3.1,1.7l-12-7.5c-0.6-0.4-1.4-0.6-2.1-0.6H34c-1.1,0-2-0.9-2-2V73C32,71.9,32.9,71,34,71z
		"/>
	<text transform="matrix(1 0 0 1 49.5957 97)" display="inline" fill="#616568" font-family="'BrushScriptMT'" font-size="30px">subscribe</text>
	
		<text transform="matrix(1.5 0 0 1 503.3389 86)" display="inline" fill="#616568" font-family="'DINCondensed-Bold'" font-size="24px">share</text>
	<path display="inline" fill="none" stroke="#616568" stroke-width="2" stroke-linejoin="round" stroke-miterlimit="10" d="
		M395.6,113l8.4,5.6c1.3,0.9,2.9,1.3,4.4,1.3H432c2.2,0,4,1.8,4,4v34c0,2.2-1.8,4-4,4h-34c-2.2,0-4-1.8-4-4v-44.1
		C394,113.1,394.9,112.6,395.6,113z"/>
	<g display="inline">
		<circle fill="none" stroke="#616568" stroke-width="2" stroke-miterlimit="10" cx="415" cy="141" r="12"/>
		<path fill="none" stroke="#616568" stroke-width="2" stroke-linecap="round" stroke-miterlimit="10" d="M420,145
			c-2.8,4-7.2,4-10,0"/>
		<ellipse fill="#616568" cx="419.5" cy="138" rx="2.5" ry="3"/>
		<ellipse fill="#616568" cx="410.5" cy="138" rx="2.5" ry="3"/>
	</g>
	<path display="inline" fill="none" stroke="#616568" stroke-width="2" stroke-linejoin="round" stroke-miterlimit="10" d="
		M125,141.6l-5.6,8.4c-0.9,1.3-1.3,2.9-1.3,4.4V178c0,2.2-1.8,4-4,4H80c-2.2,0-4-1.8-4-4v-34c0-2.2,1.8-4,4-4h44.1
		C124.9,140,125.4,140.9,125,141.6z"/>
	
		<path display="inline" opacity="0.5" fill="none" stroke="#616568" stroke-width="2" stroke-linecap="round" stroke-linejoin="round" stroke-miterlimit="10" d="
		M94,136h33.5c2.4,0,3.8,2.6,2.5,4.6l-7.4,11.4c-0.4,0.6-0.6,1.4-0.6,2.2V170"/>
	<path display="inline" fill="none" stroke="#616568" stroke-width="2" stroke-linejoin="round" stroke-miterlimit="10" d="
		M97,173.6l-1.7-1.6c-6.2-5.6-10.3-9.3-10.3-13.8c0-3.7,2.9-6.6,6.6-6.6c2.1,0,4.1,1,5.4,2.5c1.3-1.5,3.3-2.5,5.4-2.5
		c3.7,0,6.6,2.9,6.6,6.6c0,4.5-4.1,8.2-10.3,13.8L97,173.6z"/>
	<path display="inline" fill="none" stroke="#616568" stroke-width="2" stroke-linejoin="round" stroke-miterlimit="10" d="
		M300.9,236.9l14.7-8.8c0.9-0.5,1.9,0.5,1.4,1.4l-8.8,14.7c-0.7,1.2-1.1,2.7-1.1,4.1V276c0,2.2-1.8,4-4,4h-34c-2.2,0-4-1.8-4-4v-34
		c0-2.2,1.8-4,4-4h27.8C298.2,238,299.7,237.6,300.9,236.9z"/>
	
		<path display="inline" opacity="0.5" fill="none" stroke="#616568" stroke-width="2" stroke-linecap="round" stroke-linejoin="round" stroke-miterlimit="10" d="
		M282,234h14.9c1.4,0,2.8-0.4,4-1.1l13.4-7.7c3.5-2,7.5,1.9,5.5,5.5l-7.7,13.4c-0.7,1.2-1.1,2.6-1.1,4V267"/>
	
		<path display="inline" opacity="0.5" fill="none" stroke="#616568" stroke-width="2" stroke-linecap="round" stroke-linejoin="round" stroke-miterlimit="10" d="
		M440,134v-14c0-2.2-1.8-4-4-4h-23"/>
	<g display="inline">
		<circle fill="none" stroke="#616568" stroke-width="2" stroke-miterlimit="10" cx="286" cy="259" r="12"/>
		<path fill="none" stroke="#616568" stroke-width="2" stroke-linecap="round" stroke-linejoin="round" stroke-miterlimit="10" d="
			M281,263c2.2,5.3,7.8,5.3,10,0H281z"/>
		<ellipse fill="#616568" cx="290.5" cy="256.5" rx="2.5" ry="3.5"/>
		<ellipse fill="#616568" cx="281.5" cy="256.5" rx="2.5" ry="3.5"/>
	</g>
	
		<path display="inline" opacity="0.5" fill="none" stroke="#616568" stroke-width="2" stroke-linecap="round" stroke-linejoin="round" stroke-miterlimit="10" d="
		M504,55h71c3.3,0,6,2.7,6,6v20"/>
	
		<path display="inline" opacity="0.5" fill="none" stroke="#616568" stroke-width="2" stroke-linecap="round" stroke-linejoin="round" stroke-miterlimit="10" d="
		M480,291h33c3.3,0,6,2.7,6,6v24"/>
	
		<path display="inline" opacity="0.5" fill="none" stroke="#616568" stroke-width="2" stroke-linecap="round" stroke-linejoin="round" stroke-miterlimit="10" d="
		M168,219h59c2.2,0,4,1.8,4,4v26"/>
	
		<path display="inline" opacity="0.5" fill="none" stroke="#616568" stroke-width="2" stroke-linecap="round" stroke-linejoin="round" stroke-miterlimit="10" d="
		M38,204h65c2.2,0,4,1.8,4,4v8"/>
	
		<path display="inline" opacity="0.5" fill="none" stroke="#616568" stroke-width="2" stroke-linecap="round" stroke-linejoin="round" stroke-miterlimit="10" d="
		M281,308h91c3.3,0,6,2.7,6,6v28"/>
	
		<path display="inline" opacity="0.5" fill="none" stroke="#616568" stroke-width="2" stroke-linecap="round" stroke-linejoin="round" stroke-miterlimit="10" d="
		M483,144h101c3.3,0,6,2.7,6,6v12"/>
	
		<circle display="inline" fill="none" stroke="#616568" stroke-width="2" stroke-linejoin="round" stroke-miterlimit="10" cx="440" cy="90" r="5"/>
	
		<circle display="inline" fill="none" stroke="#616568" stroke-width="2" stroke-linejoin="round" stroke-miterlimit="10" cx="183" cy="120" r="4"/>
	
		<circle display="inline" fill="none" stroke="#616568" stroke-width="2" stroke-linejoin="round" stroke-miterlimit="10" cx="352" cy="285" r="3"/>
	
		<circle display="inline" fill="none" stroke="#616568" stroke-width="2" stroke-linejoin="round" stroke-miterlimit="10" cx="218" cy="286" r="6"/>
	
		<polygon display="inline" fill="none" stroke="#616568" stroke-width="1.6" stroke-linejoin="round" stroke-miterlimit="10" points="
		73.6,36.1 76.4,33.2 77.4,37.1 78.4,40.9 74.6,39.9 70.7,38.9 	"/>
	<polygon display="inline" fill="none" stroke="#616568" stroke-width="2" stroke-linejoin="round" stroke-miterlimit="10" points="
		133.7,201.3 130.2,197.8 135,196.5 139.8,195.2 138.5,200 137.2,204.8 	"/>
	
		<polygon display="inline" fill="none" stroke="#616568" stroke-width="1.6564" stroke-linejoin="round" stroke-miterlimit="10" points="
		499.6,259.4 502.5,262.3 498.5,263.4 494.5,264.5 495.6,260.5 496.7,256.5 	"/>
	
		<polygon display="inline" fill="none" stroke="#616568" stroke-width="1.6564" stroke-linejoin="round" stroke-miterlimit="10" points="
		609.6,114.5 606.7,117.4 605.6,113.4 604.5,109.4 608.5,110.5 612.5,111.5 	"/>
	
		<rect x="596" y="22" display="inline" fill="none" stroke="#616568" stroke-width="2" stroke-linejoin="round" stroke-miterlimit="10" width="6" height="6"/>
	
		<rect x="306" y="55" display="inline" fill="none" stroke="#616568" stroke-width="2" stroke-linejoin="round" stroke-miterlimit="10" width="6" height="6"/>
	
		<rect x="56" y="282" transform="matrix(-0.7071 0.7071 -0.7071 -0.7071 302.2447 444.8061)" display="inline" fill="none" stroke="#616568" stroke-width="2" stroke-linejoin="round" stroke-miterlimit="10" width="6" height="6"/>
	
		<rect x="568" y="308" display="inline" fill="none" stroke="#616568" stroke-width="2" stroke-linejoin="round" stroke-miterlimit="10" width="6" height="6"/>
	
		<rect x="364" y="182" transform="matrix(-0.7071 0.7071 -0.7071 -0.7071 764.5656 59.3066)" display="inline" fill="none" stroke="#616568" stroke-width="2" stroke-linejoin="round" stroke-miterlimit="10" width="12" height="12"/>
</g>
</svg>
